<svg width="295" height="295" viewBox="0 0 295 295" fill="none" xmlns="http://www.w3.org/2000/svg">
<path d="M146.774 295C143.913 295 141.088 294.915 138.377 294.75C137.954 294.741 137.533 294.717 137.113 294.679C131.48 294.323 125.787 293.615 120.185 292.575C119.739 292.505 119.28 292.421 118.833 292.32C107.361 290.112 96.1499 286.493 85.5085 281.561C33.5684 257.579 0 204.951 0 147.492C0 66.1647 65.8421 0 146.774 0C215.888 0 275.99 48.9715 290.316 116.677C291.658 119.008 292.716 121.43 293.471 123.901C295.504 130.556 295.505 137.851 293.5 144.638C293.519 145.587 293.531 146.538 293.531 147.492C293.531 148.16 293.515 148.824 293.499 149.487V149.504C293.932 152.297 294.099 155.125 294.215 157.065C294.25 157.686 294.28 158.215 294.315 158.605C294.907 165.03 294.928 171.538 294.378 177.941C293.947 182.961 292.924 188.713 288.601 193.338C287.627 194.379 286.553 195.247 285.409 195.927C271.315 236.597 239.48 269.76 199.361 285.237C191.84 288.142 184.025 290.428 176.134 292.038C175.708 292.133 175.299 292.211 174.872 292.289C169.612 293.332 164.052 294.097 158.474 294.54C158.389 294.546 157.659 294.6 157.467 294.611C153.954 294.869 150.357 295 146.774 295Z" fill="white"/>
<path d="M284.322 146.704C284.322 204.451 249.1 253.924 199.07 274.606C198.605 274.797 146.705 278.684 146.705 278.684L87.5908 271.533C41.2378 249.316 9.20953 201.77 9.20953 146.704C9.20953 70.3588 70.7925 8.46805 146.773 8.46805C222.739 8.46805 284.322 70.3588 284.322 146.704Z" fill="#FFCC7A"/>
<path d="M109.294 175.861C109.193 175.861 109.1 175.795 109.069 175.693C101.242 149.22 93.1486 121.848 80.7787 96.2621C77.4467 89.3708 72.8045 80.4563 66.4269 72.6212C66.3451 72.5204 66.3595 72.3716 66.4597 72.2894C66.5605 72.2066 66.708 72.2222 66.7899 72.3224C73.1986 80.1952 77.8576 89.1415 81.2011 96.056C93.5876 121.676 101.687 149.068 109.519 175.558C109.556 175.683 109.485 175.814 109.361 175.851C109.339 175.859 109.316 175.861 109.294 175.861Z" fill="#4F1F37"/>
<path d="M132.347 190.44C132.291 190.44 132.235 190.42 132.19 190.379C111.736 171.936 90.5852 152.866 66.7242 137.569C60.297 133.449 51.6988 128.293 42.1845 124.971C42.0623 124.928 41.9978 124.794 42.0404 124.671C42.083 124.548 42.2173 124.483 42.3389 124.526C51.8993 127.864 60.5275 133.038 66.9766 137.172C90.8704 152.489 112.036 171.572 132.503 190.028C132.6 190.115 132.608 190.264 132.521 190.36C132.475 190.413 132.411 190.44 132.347 190.44Z" fill="#4F1F37"/>
<path d="M78.3099 84.4524C78.1652 84.5867 78.0212 84.7205 77.8593 84.8676C74.5624 81.388 71.3791 78.1911 68.0223 74.5935C69.5008 79.326 71.3387 83.9417 73.5593 88.3813C72.876 88.9018 72.1448 89.4305 71.3981 89.9568L60.3275 89.4704L54.8885 81.6353C55.1737 80.6648 55.4744 79.6961 55.8075 78.7169C55.2486 79.6463 54.7208 80.5803 54.1901 81.5293L44.6021 88.2944L35.9485 89.9192C35.0589 86.5393 35.4444 82.7291 36.1646 79.3747C36.1784 79.2832 36.1923 79.1917 36.2234 79.0875C36.5022 77.8506 36.8088 76.6335 37.1769 75.425C41.6089 73.3045 46.0569 71.5917 50.9901 70.3733C46.8589 70.0745 42.6892 70.3473 38.6208 71.1817C41.3542 64.1387 45.4923 57.6678 50.6928 52.1842C53.3403 53.9897 55.9745 55.7772 58.0136 58.2237C56.3128 55.2827 54.7709 52.5212 53.1582 49.7186C53.1582 49.7186 53.1582 49.7186 53.1605 49.7035C56.5064 46.5442 60.214 43.7677 64.2046 41.4868C67.2266 39.7606 70.4065 38.1208 73.6705 37.1647C72.0048 41.7485 70.826 46.4996 70.2089 51.3359C72.3712 46.2344 74.8125 41.3472 77.5395 36.5185C77.5591 36.4901 77.5816 36.4467 77.5862 36.4166C80.1542 36.1659 82.7608 36.4832 85.4008 37.6164C90.7667 39.9274 93.95 45.0902 94.8817 50.6757C88.7449 52.0545 82.7902 54.2879 77.2745 57.3209C83.1036 55.8177 89.1384 55.0163 95.1761 54.4025C95.1836 54.5594 95.1888 54.732 95.1807 54.8866C94.8679 65.5579 85.8289 77.5889 78.3099 84.4524Z" fill="#FF9280"/>
<path d="M54.1907 81.5299C51.0736 87.0952 48.3996 92.9146 46.1952 98.9142C43.3892 98.4735 40.8091 97.2552 38.6669 94.9807C37.2893 93.5082 36.432 91.7716 35.9491 89.9198C41.4147 86.0836 47.8263 83.3892 54.1907 81.5299Z" fill="#4F1F37"/>
<path d="M71.3987 89.9574C65.5989 94.0548 58.1801 98.0786 51.3767 98.935C52.1528 92.9372 53.1795 87.3361 54.8885 81.6353C60.6882 83.435 67.0134 85.7668 71.3987 89.9574Z" fill="#4F1F37"/>
<path d="M53.9643 68.8481C53.5575 70.7538 53.4526 73.0497 54.8856 74.572C58.7292 78.6532 66.3808 73.491 69.4253 70.708C72.1823 68.1886 75.501 63.7797 75.6139 59.863C75.6883 57.2804 74.4881 54.5867 72.0244 53.5293C69.3095 52.3643 66.651 53.5722 64.2541 54.9468C59.1556 57.8705 55.2635 62.9615 53.9873 68.7422C53.9798 68.7775 53.9718 68.8128 53.9643 68.8481Z" fill="#FFCC7A"/>
<path d="M55.4059 131.435C55.2618 131.569 55.1172 131.703 54.9553 131.85C51.6584 128.371 48.4751 125.174 45.1183 121.576C46.5968 126.309 48.4348 130.924 50.6559 135.364C44.6113 139.954 36.1479 144.944 28.4727 145.918C29.3871 138.895 30.6351 132.438 32.904 125.7C29.0857 132.111 25.8661 138.877 23.2912 145.897C20.4858 145.456 17.9051 144.238 15.7629 141.963C11.853 137.813 12.1405 131.554 13.2618 126.357C13.2756 126.266 13.2894 126.174 13.3205 126.069C13.5994 124.833 13.9059 123.615 14.2735 122.407C18.7054 120.287 23.1535 118.574 28.0867 117.356C23.9555 117.057 19.7858 117.33 15.7174 118.164C18.4508 111.121 22.5888 104.65 27.7894 99.1667C30.4369 100.972 33.0711 102.76 35.1102 105.206C33.4093 102.265 31.8675 99.5037 30.2548 96.7011C30.2548 96.7011 30.2548 96.7011 30.2571 96.686C33.6029 93.5267 37.3106 90.7501 41.3006 88.4693C44.3226 86.7431 47.5031 85.1032 50.7665 84.1472C49.1008 88.731 47.922 93.4821 47.3049 98.3183C49.4673 93.2169 51.9085 88.3297 54.6355 83.501C54.6551 83.4726 54.6776 83.4292 54.6816 83.3991C57.2496 83.1484 59.8562 83.4657 62.4962 84.5989C67.8621 86.9099 71.0455 92.0727 71.9771 97.6582C65.8403 99.0369 59.8856 101.27 54.3699 104.303C60.1996 102.8 66.2339 101.999 72.2716 101.385C72.2791 101.542 72.2842 101.714 72.2768 101.869C71.9639 112.54 62.9243 124.571 55.4059 131.435Z" fill="#FFEAE8"/>
<path d="M31.0603 115.831C30.6535 117.736 30.5481 120.032 31.9816 121.554C35.8252 125.636 43.4768 120.473 46.5207 117.69C49.2777 115.17 52.5964 110.762 52.7094 106.845C52.7837 104.263 51.583 101.569 49.1198 100.512C46.4049 99.3467 43.7464 100.555 41.3496 101.929C36.251 104.853 32.359 109.944 31.0828 115.725C31.0753 115.76 31.0678 115.795 31.0603 115.831Z" fill="#FFCC7A"/>
<path d="M178.522 206.399C178.167 206.256 177.945 205.881 178.008 205.486C187.36 147.165 205.47 97.7723 231.835 58.6788C232.094 58.2949 232.619 58.1953 232.995 58.4553C233.378 58.7153 233.478 59.237 233.218 59.6215C206.992 98.5106 188.972 147.676 179.659 205.753C179.586 206.211 179.157 206.522 178.701 206.448C178.639 206.438 178.579 206.421 178.522 206.399Z" fill="#4F1F37"/>
<path d="M259.697 101.241C260.841 104.586 261.806 108.265 260.642 111.603C260.302 112.578 259.729 113.546 258.795 113.978C257.57 114.545 256.105 114.019 255.011 113.226C252.273 111.241 250.973 107.854 249.912 104.632C248.171 99.341 246.689 93.9639 245.474 88.5266C244.402 83.7286 242.497 77.7343 242.919 72.8546C246.567 72.4429 250.967 82.3163 252.507 85.0894C255.373 90.2453 257.785 95.6565 259.697 101.241Z" fill="#FF9280"/>
<path d="M242.164 103.2C241.713 106.708 240.953 110.435 238.437 112.908C237.702 113.63 236.76 114.242 235.733 114.212C234.384 114.173 233.305 113.049 232.674 111.851C231.097 108.851 231.428 105.235 231.899 101.875C232.674 96.3571 233.721 90.8776 235.033 85.4629C236.19 80.6845 237.13 74.4638 239.663 70.2784C243.113 71.5367 242.697 82.347 242.854 85.519C243.146 91.4178 242.918 97.3427 242.164 103.2Z" fill="#FF9280"/>
<path d="M227.875 98.6496C226.336 101.83 224.435 105.12 221.266 106.659C220.341 107.108 219.254 107.387 218.289 107.03C217.024 106.562 216.356 105.151 216.138 103.813C215.593 100.464 217.052 97.1429 218.564 94.1087C221.047 89.1259 223.775 84.2665 226.733 79.5536C229.345 75.3949 232.207 69.7978 235.933 66.6408C238.805 68.9379 234.986 79.0522 234.129 82.1096C232.538 87.7941 230.445 93.338 227.875 98.6496Z" fill="#FF9280"/>
<path d="M212.555 91.0275C209.961 93.4179 206.99 95.7758 203.48 96.0363C202.455 96.1128 201.342 95.9703 200.576 95.2818C199.57 94.3791 199.465 92.8197 199.751 91.4954C200.469 88.1792 203.04 85.629 205.556 83.3655C209.687 79.648 214.001 76.1355 218.475 72.8453C222.424 69.9414 227.132 65.7925 231.752 64.2325C233.584 67.4295 226.334 75.4262 224.42 77.9531C220.861 82.6533 216.887 87.0361 212.555 91.0275Z" fill="#FF9280"/>
<path d="M202.904 76.2675C199.574 77.41 195.911 78.3712 192.592 77.1946C191.623 76.8512 190.66 76.2716 190.233 75.3323C189.672 74.0995 190.199 72.6293 190.99 71.532C192.972 68.7844 196.345 67.4856 199.553 66.4271C204.822 64.6888 210.175 63.2116 215.588 62.0032C220.364 60.9365 226.334 59.0355 231.188 59.4704C231.589 63.1375 221.755 67.5371 218.993 69.0797C213.855 71.9472 208.466 74.3589 202.904 76.2675Z" fill="#FF9280"/>
<path d="M197.382 62.0559C193.863 62.1224 190.083 61.914 187.28 59.7755C186.461 59.1508 185.721 58.3042 185.599 57.2781C185.44 55.9324 186.388 54.6938 187.475 53.8912C190.197 51.8825 193.803 51.6804 197.18 51.6567C202.724 51.6173 208.271 51.8535 213.793 52.3625C218.666 52.8119 224.927 52.8333 229.418 54.7361C228.686 58.3517 217.985 59.5242 214.886 60.1456C209.122 61.3019 203.257 61.9447 197.382 62.0559Z" fill="#FF9280"/>
<path d="M196.267 44.1574C193.072 42.6745 189.761 40.8296 188.167 37.6761C187.702 36.7548 187.403 35.6685 187.739 34.6923C188.18 33.4114 189.571 32.7125 190.897 32.467C194.218 31.8526 197.552 33.2527 200.6 34.7119C205.606 37.1081 210.495 39.7526 215.242 42.6316C219.432 45.1725 225.056 47.9369 228.271 51.6185C226.043 54.5508 215.905 50.9138 212.847 50.1141C207.159 48.6271 201.602 46.634 196.267 44.1574Z" fill="#FF9280"/>
<path d="M220.63 46.2095C227.566 46.6595 234.272 49.9983 238.831 55.2705C243.389 60.5434 245.743 67.6825 245.218 74.6479C243.384 75.7487 241.615 75.4453 239.66 74.5796C228.4 69.5928 221.425 58.5497 220.63 46.2095Z" fill="#FFEAE8"/>
<path d="M168.584 239.423C168.317 239.148 168.265 238.715 168.482 238.379C200.553 188.873 237.029 151.096 276.897 126.098C277.289 125.852 277.809 125.975 278.049 126.366C278.293 126.76 278.174 127.277 277.782 127.522C238.122 152.39 201.82 189.996 169.884 239.294C169.632 239.683 169.114 239.793 168.727 239.54C168.675 239.506 168.627 239.467 168.584 239.423Z" fill="#4F1F37"/>
<path d="M285.202 176.357C284.9 179.881 284.298 183.637 281.888 186.214C281.184 186.967 280.269 187.619 279.241 187.633C277.893 187.651 276.766 186.574 276.086 185.404C274.383 182.474 274.561 178.848 274.89 175.471C275.432 169.924 276.246 164.405 277.328 158.94C278.283 154.117 278.959 147.861 281.313 143.572C284.814 144.682 284.854 155.5 285.145 158.662C285.685 164.543 285.708 170.473 285.202 176.357Z" fill="#FFEAE8"/>
<path d="M268.385 171.007C266.558 174.029 264.36 177.127 261.062 178.362C260.099 178.723 258.991 178.899 258.064 178.453C256.848 177.868 256.314 176.401 256.221 175.049C255.989 171.664 257.749 168.493 259.536 165.614C262.47 160.885 265.637 156.302 269.02 151.887C272.005 147.991 275.373 142.686 279.376 139.892C282.024 142.448 277.283 152.16 276.147 155.124C274.034 160.635 271.436 165.958 268.385 171.007Z" fill="#FFEAE8"/>
<path d="M257.157 161.025C254.468 163.306 251.403 165.539 247.885 165.655C246.858 165.689 245.752 165.501 245.014 164.781C244.046 163.838 244.004 162.276 244.345 160.964C245.197 157.68 247.87 155.238 250.476 153.081C254.756 149.537 259.209 146.206 263.815 143.103C267.88 140.364 272.753 136.414 277.433 135.046C279.133 138.316 271.561 146.006 269.546 148.452C265.798 153.001 261.649 157.216 257.157 161.025Z" fill="#FFEAE8"/>
<path d="M246.226 147.817C242.89 148.945 239.224 149.89 235.91 148.699C234.942 148.351 233.982 147.768 233.559 146.827C233.003 145.592 233.536 144.124 234.332 143.03C236.325 140.291 239.704 139.007 242.917 137.962C248.192 136.246 253.553 134.793 258.971 133.607C263.752 132.561 269.729 130.687 274.582 131.142C274.967 134.811 265.114 139.168 262.345 140.699C257.196 143.545 251.796 145.933 246.226 147.817Z" fill="#FFEAE8"/>
<path d="M243.357 130.392C239.851 130.08 236.115 129.467 233.556 127.039C232.809 126.329 232.162 125.408 232.15 124.375C232.135 123.02 233.209 121.89 234.375 121.209C237.295 119.505 240.903 119.692 244.262 120.03C249.78 120.587 255.27 121.418 260.706 122.518C265.503 123.489 271.726 124.182 275.988 126.558C274.876 130.074 264.111 130.089 260.964 130.374C255.11 130.904 249.21 130.913 243.357 130.392Z" fill="#FFEAE8"/>
<path d="M244.039 115.151C240.796 113.778 237.424 112.048 235.725 108.951C235.228 108.047 234.893 106.971 235.195 105.984C235.592 104.688 236.958 103.942 238.275 103.651C241.573 102.924 244.952 104.208 248.048 105.562C253.133 107.785 258.109 110.26 262.951 112.975C267.225 115.371 272.94 117.941 276.277 121.51C274.15 124.517 263.895 121.23 260.811 120.535C255.077 119.244 249.456 117.443 244.039 115.151Z" fill="#FFEAE8"/>
<path d="M250.238 98.3345C247.916 95.6773 245.633 92.6419 245.448 89.1103C245.394 88.079 245.559 86.9637 246.26 86.208C247.18 85.2167 248.733 85.1443 250.044 85.4605C253.328 86.2515 255.811 88.8891 258.009 91.4647C261.619 95.6941 265.022 100.103 268.2 104.669C271.005 108.699 275.032 113.517 276.486 118.192C273.267 119.965 265.465 112.51 262.993 110.533C258.393 106.857 254.117 102.772 250.238 98.3345Z" fill="#FFEAE8"/>
<path d="M271.684 110.135C277.843 113.371 282.627 119.155 284.668 125.833C286.708 132.51 285.981 139.995 282.692 146.149C280.571 146.408 279.077 145.41 277.639 143.823C269.356 134.676 267.433 121.74 271.684 110.135Z" fill="#FF794F"/>
<path d="M187.867 277.228L187.694 276.928C212.64 262.428 233.774 237.665 250.508 203.327L250.817 203.48C234.053 237.881 212.874 262.694 187.867 277.228Z" fill="#4F1F37"/>
<path d="M249.216 197.498C249.677 196.39 250.176 195.236 251.108 194.485C252.04 193.733 253.544 193.553 254.37 194.421C255.064 195.151 255.041 196.296 254.889 197.294C254.206 201.79 251.87 205.839 249.456 209.685C246.562 214.296 243.627 219.22 240.068 223.342C241.602 219.298 243.634 212.768 244.453 210.637C246.208 206.075 247.339 202.012 249.216 197.498Z" fill="#4F1F37"/>
<path d="M248.574 228.393C249.612 227.798 250.707 227.19 251.902 227.166C253.097 227.142 254.398 227.922 254.526 229.116C254.634 230.12 253.92 231.013 253.194 231.711C249.924 234.854 245.614 236.63 241.367 238.197C236.274 240.077 230.96 242.178 225.638 243.262C229.308 240.998 234.883 237.07 236.825 235.884C240.985 233.344 244.347 230.818 248.574 228.393Z" fill="#4F1F37"/>
<path d="M230.996 247.333C232.034 246.738 233.13 246.13 234.325 246.106C235.52 246.082 236.821 246.862 236.948 248.056C237.056 249.06 236.342 249.953 235.616 250.65C232.346 253.794 228.036 255.57 223.789 257.137C218.696 259.017 213.382 261.118 208.06 262.202C211.731 259.938 217.305 256.01 219.247 254.824C223.407 252.284 226.769 249.758 230.996 247.333Z" fill="#4F1F37"/>
<path d="M233.559 208.561C233.679 207.875 233.828 207.164 234.251 206.612C234.674 206.061 235.452 205.721 236.082 206.012C236.408 206.163 236.648 206.457 236.833 206.766C237.618 208.085 237.566 209.725 237.465 211.259C237.177 215.692 236.676 220.129 235.664 224.46C235.163 226.604 234.536 228.721 233.743 230.775C233.055 232.555 232.133 234.892 230.838 236.558C231.067 235.375 231.691 231.524 231.883 230.248C232.237 227.896 232.398 225.52 232.51 223.145C232.737 218.279 232.719 213.375 233.559 208.561Z" fill="#4F1F37"/>
<path d="M218.101 227.488C218.221 226.802 218.37 226.091 218.793 225.539C219.217 224.987 219.994 224.648 220.624 224.939C220.95 225.09 221.19 225.384 221.374 225.694C222.16 227.013 222.107 228.652 222.008 230.186C221.719 234.619 221.219 239.057 220.207 243.387C219.705 245.532 219.078 247.649 218.285 249.703C217.598 251.482 216.675 253.82 215.381 255.486C215.609 254.303 216.233 250.452 216.426 249.176C216.78 246.824 216.941 244.448 217.052 242.074C217.278 237.205 217.261 232.302 218.101 227.488Z" fill="#4F1F37"/>
<path d="M126.056 260.396C97.558 255.644 69.0398 239.918 41.2925 213.655L41.5288 213.404C69.2253 239.618 97.6831 255.314 126.111 260.054L126.056 260.396Z" fill="#4F1F37"/>
<path d="M40.6956 207.491C39.8757 206.617 39.0045 205.714 37.8689 205.34C36.7333 204.967 35.2623 205.331 34.7933 206.435C34.3992 207.364 34.8221 208.428 35.3142 209.309C37.5284 213.274 41.1346 216.237 44.7415 218.982C49.0662 222.273 53.5385 225.843 58.3144 228.442C55.4612 225.199 51.2707 219.807 49.7571 218.103C46.5161 214.453 44.0339 211.05 40.6956 207.491Z" fill="#4F1F37"/>
<path d="M52.1234 236.178C50.9434 235.988 49.7046 235.807 48.5782 236.208C47.4518 236.608 46.5069 237.798 46.8059 238.961C47.0571 239.939 48.0383 240.522 48.9625 240.918C53.1242 242.702 57.7803 242.839 62.3049 242.803C67.7296 242.759 73.4395 242.845 78.8013 241.975C74.5728 241.156 67.9785 239.452 65.7453 239.03C60.9619 238.126 56.9298 236.952 52.1234 236.178Z" fill="#4F1F37"/>
<path d="M75.2135 247.683C74.0335 247.493 72.7947 247.312 71.6683 247.712C70.5419 248.113 69.597 249.303 69.896 250.466C70.1472 251.443 71.1285 252.026 72.0526 252.423C76.2143 254.207 80.8704 254.344 85.3945 254.307C90.8197 254.264 96.5296 254.349 101.891 253.48C97.6623 252.66 91.0686 250.957 88.8348 250.535C84.0514 249.63 80.0194 248.456 75.2135 247.683Z" fill="#4F1F37"/>
<path d="M59.2259 212.303C58.8733 211.703 58.4849 211.091 57.8955 210.724C57.3061 210.358 56.4591 210.314 55.9717 210.811C55.7193 211.068 55.5977 211.427 55.5338 211.783C55.2607 213.295 55.8847 214.811 56.5156 216.211C58.3397 220.258 60.3627 224.234 62.8281 227.929C64.0484 229.758 65.3771 231.518 66.8394 233.159C68.1064 234.581 69.7888 236.442 71.5842 237.543C70.955 236.518 69.022 233.134 68.3951 232.008C67.2393 229.932 66.2552 227.765 65.3195 225.582C63.4014 221.107 61.6994 216.511 59.2259 212.303Z" fill="#4F1F37"/>
<path d="M80.3265 224.545C79.9738 223.945 79.5855 223.333 78.9961 222.966C78.4066 222.599 77.5597 222.556 77.0728 223.052C76.8204 223.309 76.6989 223.669 76.6349 224.025C76.3618 225.537 76.9858 227.053 77.6167 228.453C79.4409 232.5 81.4638 236.476 83.9293 240.171C85.1502 242 86.4782 243.76 87.9406 245.401C89.2076 246.823 90.89 248.684 92.6853 249.785C92.0567 248.759 90.1231 245.376 89.4962 244.25C88.3404 242.174 87.3563 240.007 86.4206 237.824C84.5025 233.348 82.8 228.752 80.3265 224.545Z" fill="#4F1F37"/>
<path d="M199.613 220.651C199.569 220.638 199.524 220.619 199.482 220.594C199.195 220.429 199.094 220.06 199.26 219.77C209.807 201.285 226.022 185.782 244.919 176.118C245.214 175.968 245.577 176.085 245.727 176.383C245.877 176.68 245.76 177.043 245.464 177.195C226.773 186.753 210.734 202.087 200.302 220.371C200.162 220.617 199.873 220.727 199.613 220.651Z" fill="#4F1F37"/>
<path d="M216.26 198.6C216.214 198.587 216.169 198.567 216.126 198.542C215.84 198.374 215.742 198.005 215.909 197.716C216.44 196.8 217.743 195.693 218.756 195.298C227.588 191.853 236.871 190.009 246.345 189.815C246.681 189.807 246.951 190.074 246.958 190.407C246.965 190.74 246.701 191.016 246.369 191.023C237.036 191.213 227.892 193.031 219.19 196.425C218.431 196.72 217.341 197.643 216.948 198.324C216.806 198.568 216.519 198.677 216.26 198.6Z" fill="#4F1F37"/>
<path d="M223.048 191.91C222.754 191.823 222.569 191.526 222.626 191.218C223.873 184.571 226.104 178.172 229.261 172.199C229.416 171.904 229.78 171.793 230.073 171.949C230.366 172.105 230.478 172.471 230.322 172.765C227.223 178.631 225.031 184.915 223.807 191.442C223.745 191.77 223.431 191.986 223.105 191.924C223.086 191.92 223.067 191.915 223.048 191.91Z" fill="#4F1F37"/>
<path d="M222.846 170.095C222.709 173.173 225.083 175.78 228.146 175.918C231.21 176.054 233.804 173.67 233.94 170.591C234.076 167.512 231.704 164.905 228.64 164.768C225.576 164.631 222.982 167.016 222.846 170.095Z" fill="white"/>
<path d="M238.022 176.264C237.885 179.343 240.259 181.95 243.322 182.087C246.386 182.224 248.979 179.839 249.116 176.76C249.253 173.681 246.879 171.074 243.816 170.937C240.752 170.801 238.158 173.186 238.022 176.264Z" fill="white"/>
<path d="M237.369 191.004C237.232 194.083 239.606 196.69 242.669 196.827C245.733 196.964 248.327 194.579 248.463 191.5C248.599 188.422 246.227 185.815 243.163 185.678C240.099 185.54 237.505 187.925 237.369 191.004Z" fill="white"/>
<path d="M85.595 214.454C85.6347 214.43 85.6733 214.401 85.7079 214.367C85.9458 214.134 85.9516 213.752 85.7206 213.513C70.9521 198.223 51.4256 187.232 30.7382 182.565C30.415 182.493 30.0917 182.697 30.0197 183.023C29.9471 183.348 30.1505 183.671 30.4749 183.745C50.9376 188.361 70.2509 199.232 84.858 214.354C85.0551 214.558 85.3616 214.592 85.595 214.454Z" fill="#4F1F37"/>
<path d="M64.0386 197.225C64.0801 197.201 64.1187 197.17 64.1544 197.135C64.3907 196.901 64.3941 196.52 64.1619 196.281C63.4221 195.525 61.8866 194.777 60.8086 194.646C51.4026 193.503 41.9545 194.023 32.7266 196.191C32.3999 196.267 32.2028 196.593 32.2777 196.916C32.3532 197.241 32.6764 197.443 32.9997 197.367C42.0899 195.232 51.398 194.721 60.6646 195.847C61.4724 195.944 62.7549 196.567 63.3046 197.129C63.5016 197.33 63.8064 197.364 64.0386 197.225Z" fill="#4F1F37"/>
<path d="M55.8155 192.43C56.0782 192.273 56.1848 191.939 56.054 191.655C53.2106 185.524 49.473 179.878 44.9454 174.875C44.7225 174.629 44.3422 174.611 44.0967 174.835C43.8513 175.059 43.8328 175.441 44.0564 175.688C48.5027 180.601 52.1729 186.145 54.9651 192.165C55.1051 192.467 55.4629 192.598 55.7636 192.457C55.7809 192.449 55.7988 192.44 55.8155 192.43Z" fill="#4F1F37"/>
<path d="M50.6426 171.242C51.5323 174.191 49.8746 177.307 46.9402 178.201C44.0057 179.095 40.9053 177.429 40.0157 174.48C39.1261 171.531 40.7838 168.415 43.7182 167.521C46.6532 166.627 49.753 168.293 50.6426 171.242Z" fill="white"/>
<path d="M37.4569 180.992C38.3465 183.941 36.6889 187.057 33.7545 187.951C30.82 188.845 27.7196 187.18 26.83 184.23C25.9404 181.281 27.5981 178.165 30.5325 177.271C33.4669 176.377 36.5673 178.043 37.4569 180.992Z" fill="white"/>
<path d="M41.7166 195.112C42.6062 198.061 40.9485 201.177 38.0141 202.071C35.0797 202.965 31.9793 201.299 31.0897 198.35C30.2001 195.401 31.8577 192.285 34.7921 191.391C37.7266 190.496 40.8264 192.162 41.7166 195.112Z" fill="white"/>
<path d="M218.928 196.796C220.857 213.538 221.695 230.406 221.433 247.256C221.394 249.763 221.296 252.399 220.011 254.55C218.509 257.065 215.572 258.473 212.657 258.714C209.742 258.955 206.835 258.172 204.101 257.133C195.656 253.923 188.378 248.287 181.378 242.569C187.694 227.493 193.248 211.81 199.702 196.793C205.679 195.458 212.815 196.417 218.928 196.796Z" fill="#FF9280"/>
<path d="M70.2653 203.027C74.8107 220.174 79.8522 237.187 85.3823 254.039C85.9343 255.72 86.5243 257.458 87.7349 258.744C89.2997 260.408 91.6378 261.046 93.8653 261.527C98.6095 262.55 103.437 263.183 108.283 263.417C104.563 243.092 100.06 222.576 94.8857 202.574C94.778 202.158 94.6518 201.713 94.3193 201.443C93.9356 201.132 93.3929 201.144 92.9008 201.171C85.1761 201.597 77.9901 202.601 70.2653 203.027Z" fill="#FF9280"/>
<path d="M199.068 274.601L190.429 263.132L190.203 262.824L190.187 262.808C190.187 262.808 190.235 262.677 190.3 262.417C190.673 261.198 191.902 257.149 193.456 251.538C196.465 240.692 200.769 224.024 202.614 210.966C202.76 209.958 202.889 208.966 203.002 208.006C203.002 208.006 203.034 208.006 203.099 207.99C203.229 207.974 203.52 207.925 203.941 207.844C206.368 207.388 213.147 205.973 219.717 203.29C227.726 200.022 235.412 194.851 234.393 187.257C232.338 171.889 219.118 159.01 219.118 159.01C219.118 159.01 222.824 135.772 208.779 126.634C207.84 126.016 206.724 125.479 205.446 124.992C203.342 124.195 200.834 123.561 198.035 123.073C197.921 123.04 197.792 123.024 197.679 123.007C197.549 122.975 197.404 122.959 197.258 122.942C196.805 122.861 196.336 122.78 195.867 122.715C174.784 119.641 140.626 123.317 140.626 123.317C140.626 123.317 124.397 123.641 107.44 126.048C104.705 126.439 101.939 126.878 99.2364 127.398C98.7346 127.479 98.2494 127.577 97.7637 127.674C84.9485 130.195 73.4763 134.13 70.3857 140.326C62.5383 156.116 67.4893 157.352 62.9589 161.921C58.4117 166.491 46.8428 173.125 50.5649 186.005C53.72 196.932 67.328 204.575 71.341 206.624C72.0532 206.982 72.4577 207.177 72.4577 207.177H86.5024C86.5024 207.177 87.8294 215.893 90.0136 226.414C90.0298 226.479 90.0459 226.561 90.062 226.626C90.6768 229.65 91.3889 232.838 92.1334 235.992C92.263 236.545 92.3921 237.082 92.5378 237.635C95.1266 248.123 98.3468 258.108 101.793 261.571C101.793 261.571 101.68 261.636 101.437 261.783C101.145 261.945 100.692 262.222 100.078 262.612C97.7597 264.05 93.0575 267.319 87.5931 271.529C88.1825 271.812 88.7725 272.093 89.366 272.367C98.4459 276.576 108.05 279.794 118.059 281.919C118.767 282.062 119.478 282.201 120.189 282.337C120.529 282.418 120.885 282.484 121.225 282.532C126.791 283.573 132.471 284.289 138.231 284.647C138.538 284.679 138.845 284.695 139.153 284.695C141.808 284.864 144.478 284.943 147.162 284.952C150.424 284.942 153.67 284.823 156.874 284.585C157.165 284.57 157.457 284.539 157.748 284.523C162.998 284.107 168.155 283.397 173.221 282.395C173.559 282.333 173.881 282.271 174.219 282.194C181.74 280.667 189.031 278.523 196.062 275.808C197.07 275.418 198.071 275.013 199.068 274.601Z" fill="#FFEAE8"/>
<path d="M189.87 262.881C189.829 262.881 189.788 262.875 189.747 262.862C189.533 262.793 189.417 262.564 189.485 262.35C198.226 235.032 202.954 213.699 204.81 193.179C207.144 167.422 204.561 143.894 197.136 123.247C197.059 123.036 197.168 122.803 197.379 122.726C197.59 122.652 197.819 122.758 197.897 122.97C205.363 143.73 207.959 167.377 205.616 193.252C203.753 213.834 199.016 235.222 190.255 262.599C190.2 262.772 190.041 262.881 189.87 262.881Z" fill="#FFCC7A"/>
<path d="M150.303 266.771C122.469 266.771 101.876 262.033 101.583 261.965C101.481 261.941 101.395 261.879 101.338 261.794C91.6038 247.119 88.088 222.152 85.9896 207.236C83.5167 189.683 84.2513 169.875 88.0581 151.461C92.4543 130.208 99.0019 126.426 99.2785 126.276C99.4761 126.17 99.721 126.244 99.827 126.44C99.933 126.637 99.8615 126.882 99.6656 126.99C99.6011 127.026 93.1474 130.844 88.8515 151.627C83.7379 176.352 85.3656 197.009 86.7893 207.123C88.7374 220.954 92.3575 246.663 101.923 261.209C104.781 261.851 145.953 270.752 190.009 262.416C190.235 262.369 190.439 262.52 190.481 262.739C190.522 262.96 190.377 263.173 190.157 263.214C176.214 265.853 162.555 266.771 150.303 266.771Z" fill="#FFCC7A"/>
<path d="M149.35 266.222C149.075 266.076 148.735 265.995 148.379 265.946C148.363 265.946 148.363 265.946 148.346 265.946H147.845C147.813 265.929 147.781 265.929 147.748 265.946C146.841 265.978 145.774 266.255 144.609 266.71C141.389 267.962 137.506 270.466 134.771 272.222C133.881 272.792 133.137 273.279 132.603 273.588C127.765 276.418 123.623 279.312 120.079 282.337C120.419 282.418 120.775 282.484 121.115 282.532C124.514 279.686 128.445 276.971 133.008 274.288C133.542 273.979 134.303 273.491 135.209 272.906C138.558 270.743 144.335 267.035 147.538 266.759C147.878 266.71 148.169 266.727 148.428 266.759C148.525 266.775 148.606 266.808 148.688 266.824C148.671 266.856 148.671 266.889 148.655 266.921C148.574 267.214 148.477 267.507 148.364 267.8C146.924 271.865 143.914 276.191 141.228 280.061C140.111 281.671 139.027 283.2 138.121 284.647C138.429 284.679 138.736 284.695 139.044 284.695C139.901 283.378 140.872 281.979 141.892 280.516C144.416 276.89 147.199 272.89 148.768 269.003C148.93 268.613 149.092 268.206 149.205 267.816C149.254 267.734 149.269 267.653 149.302 267.572C149.383 267.312 149.464 267.035 149.545 266.775V266.727C149.561 266.71 149.561 266.71 149.561 266.694C149.608 266.515 149.528 266.32 149.35 266.222Z" fill="#FFCC7A"/>
<path d="M165.222 274.37C164.688 274.044 163.944 273.573 163.038 272.987C159.527 270.727 154.106 267.247 150.611 266.775C150.239 266.71 149.867 266.694 149.544 266.727C149.398 266.727 149.268 266.743 149.155 266.775H149.107C148.945 266.808 148.784 266.856 148.654 266.922C148.59 266.938 148.524 266.971 148.46 267.003C148.298 267.085 148.217 267.28 148.266 267.459C148.298 267.573 148.33 267.686 148.363 267.8C148.476 268.191 148.605 268.597 148.767 269.004C150.256 273.118 153.249 277.443 155.935 281.297C156.728 282.436 157.489 283.525 158.185 284.566C158.492 284.55 158.799 284.517 159.107 284.501C158.33 283.33 157.489 282.095 156.599 280.826C153.735 276.712 150.531 272.077 149.204 267.817C149.188 267.752 149.156 267.671 149.14 267.606C149.189 267.589 149.237 267.573 149.302 267.573C152.133 266.939 158.881 271.281 162.602 273.671C163.508 274.257 164.269 274.744 164.819 275.07C168.816 277.411 172.327 279.785 175.417 282.257C175.773 282.193 176.113 282.128 176.468 282.046C173.216 279.41 169.494 276.873 165.222 274.37Z" fill="#FFCC7A"/>
<path d="M168.325 64.0773C168.325 46.0387 153.775 31.4159 135.826 31.4159C120.434 31.4159 109.626 41.4149 104.21 56.6202C103.094 59.8288 101.526 65.5162 100.366 71.2737C97.9515 73.8806 95.7488 75.334 93.3341 77.9409C92.2976 79.0602 91.1809 80.5316 91.7081 81.9659C92.0596 82.9219 93.0304 83.4737 93.9189 83.9648C95.4314 84.8009 96.9017 85.7118 98.3502 86.6556C96.7352 105.433 97.1207 109.896 106.218 111.685C115.605 113.531 129.026 116.778 143.291 95.8382C157.635 92.4444 168.325 79.5298 168.325 64.0773Z" fill="#FF9280"/>
<path d="M100.79 91.4004C99.8149 91.4004 98.8302 91.1827 97.9233 90.6858C97.732 90.581 97.6611 90.3401 97.7654 90.1485C97.868 89.9545 98.1082 89.8856 98.2995 89.9904C100.728 91.3228 103.807 90.3563 105.378 88.6499C105.525 88.4889 105.775 88.4802 105.934 88.6285C106.094 88.7767 106.103 89.028 105.956 89.1884C104.762 90.4843 102.793 91.4004 100.79 91.4004Z" fill="#4F1F37"/>
<path d="M108.996 73.3247C108.996 75.154 107.989 76.6369 106.747 76.6369C105.505 76.6369 104.497 75.154 104.497 73.3247C104.497 71.4955 105.505 70.0126 106.747 70.0126C107.989 70.0126 108.996 71.4955 108.996 73.3247Z" fill="#4F1F37"/>
<path d="M109.505 67.2673C109.368 67.2673 109.233 67.1949 109.159 67.0663C108.792 66.4247 108.11 65.9696 107.377 65.8793C106.64 65.7895 105.872 66.0652 105.363 66.5979C105.208 66.7583 104.957 66.7618 104.799 66.6089C104.642 66.4554 104.635 66.2012 104.788 66.042C105.469 65.3315 106.492 64.9644 107.475 65.0837C108.451 65.2035 109.361 65.8104 109.851 66.6662C109.96 66.8585 109.896 67.1034 109.704 67.214C109.641 67.2499 109.573 67.2673 109.505 67.2673Z" fill="#4F1F37"/>
<path d="M119.386 92.7833C123.543 91.0352 125.503 86.2314 123.763 82.0536C122.024 77.8759 117.244 75.9063 113.087 77.6544C108.93 79.4024 106.97 84.2063 108.71 88.384C110.449 92.5617 115.229 94.5313 119.386 92.7833Z" fill="#FF794F"/>
<path d="M204.774 133.237H200.483C199.74 128.731 198.212 124.748 196.624 120.46C196.337 119.656 196.246 119.765 196.024 118.9C195.821 123.757 195.061 128.564 193.726 133.237H116.682C115.837 131.595 115.432 129.87 115.499 127.894C114.385 129.485 113.625 131.328 113.32 133.237H107.29C107.071 133.103 106.496 133.371 106.277 133.237C106.953 120.139 114.283 107.527 125.398 100.409C129.655 97.6617 135.668 97.0253 138.76 93.0223C141.209 89.8566 141.564 86.1385 140.06 82.4367C131.04 78.3167 122.78 72.0693 117.645 63.6279C112.51 55.2033 110.821 44.4503 114.487 35.3054C125.838 29.3261 139.064 27.5339 150.636 27.6179C156.362 27.6515 165.382 28.6225 170.264 31.889C180.821 38.9401 182.443 42.91 185.839 50.7481C189.251 58.5867 189.926 67.4132 188.727 75.8546C188.17 79.7736 187.274 83.9445 188.896 87.5624C189.673 89.2706 190.973 90.6945 192.172 92.1346C201.75 103.524 207.257 118.615 204.774 133.237Z" fill="#4F1F37"/>
<path d="M134.801 77.2773C137.571 76.1812 140.892 76.3769 143.293 78.1801C146.442 80.5455 147.388 85.2323 146.227 89.0755C145.947 90.0031 145.558 90.9036 145.001 91.6864C143.032 94.4555 139.331 95.2812 136.02 95.0044C134.462 94.8741 132.838 94.5064 131.681 93.4195C130.987 92.7681 130.514 91.9053 130.111 91.0304C129.071 88.7796 127.589 85.1657 128.492 82.7829C129.398 80.3886 132.595 78.1499 134.801 77.2773Z" fill="#FF9280"/>
<path d="M135.346 89.2863C135.301 89.2863 135.257 89.2799 135.214 89.2654C134.99 89.1925 134.866 88.9504 134.939 88.724C135.851 85.8936 138.112 83.5305 140.845 82.5565C141.06 82.4749 141.311 82.593 141.39 82.8177C141.469 83.0418 141.352 83.2873 141.129 83.366C138.645 84.252 136.585 86.4066 135.752 88.9886C135.693 89.171 135.525 89.2863 135.346 89.2863Z" fill="#4F1F37"/>
</svg>
