<svg width="295" height="295" viewBox="0 0 295 295" fill="none" xmlns="http://www.w3.org/2000/svg">
<path d="M150.521 295C149.929 295 149.325 294.997 148.731 294.971C148.209 294.968 147.697 294.958 147.182 294.945C147.182 294.945 146.151 294.929 146.067 294.926C131.583 294.47 117.378 291.84 103.844 287.108C102.527 286.664 101.024 286.113 99.2066 285.4C98.4968 285.128 97.7339 284.831 96.9699 284.506C89.3593 281.419 81.899 277.59 74.7937 273.121C73.9772 272.606 73.1718 272.095 72.3795 271.572C71.6749 271.111 70.9362 270.614 70.2131 270.117C58.9818 262.418 48.9126 253.22 40.2827 242.777C39.7769 242.194 39.2981 241.599 38.8354 241.003C38.5634 240.674 38.2932 240.339 38.027 240.001C37.7418 239.693 37.4768 239.361 37.2359 239.007C36.6926 238.317 36.1562 237.623 35.633 236.927C34.7048 236.118 33.9506 235.101 33.4424 233.934C31.4558 231.145 29.5343 228.218 27.717 225.213C27.6485 225.11 27.581 225.005 27.5154 224.9C26.7796 223.697 26.0565 222.463 25.3651 221.244C25.3276 221.179 25.1352 220.826 25.1352 220.826C24.9992 220.577 24.8621 220.324 24.729 220.062C12.5038 198.068 6.04319 172.98 6.04319 147.5C6.04319 135.886 7.37587 124.337 10.0078 113.099C7.30039 109.664 5.99306 105.401 6.18262 101.298C2.57406 97.7108 0.266495 92.7062 0.0216223 87.3858C-0.248602 81.523 2.02843 75.7108 6.04376 71.4821C6.27769 69.1287 6.98811 66.7687 8.1514 64.6253C9.99111 61.2365 13.001 58.4331 16.6269 56.7261C19.2012 55.5167 22.0953 54.8767 24.9986 54.8767C25.7828 54.8767 26.563 54.922 27.3362 55.0114C27.9279 54.1614 28.5963 53.3503 29.3343 52.5921C32.4814 49.3657 36.8551 47.5163 41.3389 47.5163C41.9508 47.5163 42.5678 47.5522 43.1722 47.6204C43.4828 47.6563 43.7922 47.6998 44.1028 47.7534C58.2069 32.0944 75.6095 19.5912 94.7488 11.4109C94.879 11.3544 95.0098 11.3038 95.1412 11.2544C107.581 5.95042 120.7 2.48522 134.143 0.95115C134.915 0.841153 135.644 0.771155 136.407 0.705274C136.431 0.704098 136.454 0.701157 136.478 0.699981C140.959 0.235876 145.682 0 150.52 0C151.901 0 153.515 0.00941154 155.163 0.0729392C155.206 0.0729392 155.248 0.0729392 155.293 0.0729392C155.546 0.0729392 155.798 0.0841154 156.046 0.107056C171.879 0.711157 187.356 3.93754 202.099 9.70855C207.564 8.54153 212.701 7.95096 217.404 7.95096L217.727 7.95213C218.137 7.94272 218.543 7.93684 218.945 7.93684C225.74 7.93684 231.398 9.31798 235.771 12.0438C236.164 12.2455 236.553 12.4532 236.924 12.6767C237.878 13.2508 238.698 13.9867 239.36 14.8431C240.335 15.7931 241.193 16.816 241.92 17.8966C244.303 21.4306 246.494 27.2357 244.93 35.8543C265.42 53.8956 280.399 77.1631 288.452 103.514C289.692 105.674 290.384 108.143 290.441 110.62C293.467 122.615 295 135.015 295 147.5C295 175.544 287.24 202.846 272.56 226.454C272.468 226.603 272.37 226.75 272.267 226.894C269.565 231.225 266.671 235.362 263.659 239.199L263.455 239.466C263.03 240.019 262.594 240.584 262.148 241.132C259.905 243.93 257.431 246.773 254.816 249.557C252.574 254.545 248.446 258.513 243.404 260.468C238.092 265.028 232.439 269.205 226.565 272.916L226.332 273.064C225.431 273.641 224.535 274.211 223.604 274.744C223.514 274.796 223.423 274.845 223.331 274.893C216.827 278.795 209.951 282.193 202.883 284.994C202.095 285.317 201.214 285.667 200.32 285.989C200.268 286.008 200.215 286.026 200.163 286.043C198.073 286.827 196.037 287.536 193.946 288.203C191.106 289.12 188.203 289.95 185.342 290.658L184.547 290.854C184.244 290.933 183.934 291.003 183.626 291.072C181.562 291.569 179.443 292.03 177.397 292.427L176.671 292.56C174.776 292.916 173 293.217 171.259 293.472C171.114 293.499 170.95 293.528 170.786 293.551C170.702 293.564 170.001 293.65 170.001 293.65C168.967 293.794 167.84 293.94 166.709 294.068C165.637 294.192 164.541 294.302 163.441 294.402L163.183 294.428C160.637 294.655 158.075 294.813 155.572 294.898L153.232 294.966C152.343 294.999 151.415 295 150.521 295Z" fill="white"/>
<path d="M286.034 147.5C286.034 174.902 278.267 200.407 264.881 221.932L264.853 221.946C262.277 226.108 259.51 230.101 256.507 233.925C256.053 234.516 255.584 235.135 255.102 235.725C252.555 238.902 249.869 241.939 247.06 244.863C244.346 247.689 241.523 250.402 238.576 252.976C233.233 257.672 227.545 261.932 221.513 265.742C220.631 266.304 219.764 266.867 218.855 267.387H218.827C212.575 271.17 206.033 274.417 199.189 277.131C198.431 277.44 197.66 277.749 196.875 278.031H196.861C194.85 278.79 192.84 279.493 190.774 280.153C188.116 281.011 185.417 281.785 182.69 282.459C182.401 282.53 43.3618 234.248 43.3341 234.206C43.3203 234.206 43.3203 234.206 43.3341 234.178C42.3011 232.885 40.2355 230.115 40.194 230.045C37.9492 226.965 35.8422 223.774 33.8728 220.499C33.8728 220.47 33.8452 220.456 33.8175 220.428C33.129 219.303 32.4543 218.15 31.8067 217.012C31.6413 216.702 31.4627 216.393 31.2968 216.056C20.0199 195.823 13.6025 172.428 13.6025 147.5C13.6025 89.7287 48.1284 40.183 97.2378 19.1918C97.2378 19.1918 97.2378 19.1918 97.2655 19.1918C108.944 14.1726 121.421 10.798 134.476 9.32153C135.137 9.22329 135.757 9.16683 136.404 9.11036H136.432C140.839 8.64684 145.301 8.43567 149.818 8.43567C151.416 8.43567 153 8.44979 154.569 8.51978C154.569 8.51978 154.597 8.49155 154.597 8.51978C171.123 9.09624 186.919 12.6955 201.434 18.7836C201.476 18.7836 201.517 18.7977 201.558 18.826H201.572C213.664 23.887 224.874 30.6921 234.913 38.9172C266.079 64.3935 286.034 103.578 286.034 147.5Z" fill="#6C92E5"/>
<path d="M106.003 184.342C105.956 184.342 105.91 184.323 105.875 184.285C84.0101 160.428 67.5184 131.299 58.1827 100.048C58.1545 99.9543 58.2069 99.8548 58.2991 99.826C58.3907 99.7954 58.4886 99.8501 58.5169 99.9443C67.837 131.143 84.3011 160.224 106.131 184.042C106.196 184.114 106.192 184.227 106.122 184.294C106.088 184.326 106.045 184.342 106.003 184.342Z" fill="#4F1F37"/>
<path d="M57.9406 109.76C57.864 110.78 57.8934 111.87 58.4292 112.735C58.6004 113.011 58.8372 113.267 59.146 113.35C59.5954 113.47 60.0713 113.178 60.3225 112.779C60.5738 112.381 60.651 111.897 60.7218 111.429C60.8451 110.618 60.9684 109.808 61.0917 108.996C62.3368 109.473 63.6776 109.687 65.0057 109.623C65.6815 109.59 66.4478 109.425 66.7837 108.825C67.0315 108.384 66.9618 107.809 66.7082 107.371C66.4547 106.933 66.0445 106.612 65.6141 106.356C64.2417 105.537 61.1465 104.578 59.5827 105.286C58.0916 105.962 58.049 108.316 57.9406 109.76Z" fill="#4F1F37"/>
<path d="M58.5278 107.047C48.9979 112.707 37.5257 114.88 26.6407 113.085C22.8547 112.461 18.9552 111.262 16.2909 108.446C13.6273 105.629 12.6922 100.813 15.1115 97.7749C10.8035 96.2208 7.78665 91.6474 7.57174 86.9881C7.35683 82.3289 9.91042 77.699 13.8163 75.2779C13.1583 73.1926 13.6377 70.6274 14.6777 68.711C15.7177 66.7946 17.4346 65.304 19.3833 64.3876C23.3179 62.5371 28.2407 63.1135 31.6632 65.8252C31.3647 63.2082 32.6715 60.4077 34.4916 58.5401C36.3117 56.6725 38.9869 55.7114 41.5514 56.0031C44.0059 56.2825 46.2259 57.6219 48.1791 59.1654C48.4033 57.1619 50.5547 55.2167 52.3166 54.3061C54.0786 53.3955 56.2876 53.4532 58.0017 54.4549C59.7965 55.5037 60.9246 57.4013 61.9761 59.2189C62.3195 59.8124 62.6624 60.4059 63.0058 60.9989C67.5045 60.1259 72.6584 61.4689 76.0595 64.5994C79.4606 67.7299 81.3176 72.5279 80.9316 77.1861C80.6654 80.3948 79.4111 83.4335 77.928 86.2752C73.5007 94.7561 66.6639 102.214 58.5278 107.047Z" fill="#FF9280"/>
<path d="M61.1143 106.041C61.0941 106.041 61.0745 106.034 61.0578 106.019C60.2973 105.359 59.5413 104.711 58.7877 104.065C58.2052 103.565 57.6238 103.066 57.043 102.564C56.9739 102.508 56.9019 102.447 56.8304 102.384C56.7607 102.324 56.6916 102.263 56.6213 102.207C56.4375 102.051 56.2577 101.895 56.0791 101.74C55.8014 101.498 55.5139 101.248 55.2252 101.015C51.9099 98.192 49.0227 96.0197 45.7034 94.5921C44.5568 94.1009 43.3745 93.7356 42.1899 93.5062C39.7752 93.0115 36.2156 92.8168 32.9637 94.7044C32.3092 95.0803 31.6771 95.5356 31.0664 95.9761C29.929 96.7961 28.7525 97.6437 27.3938 98.0043C25.5795 98.482 23.7069 98.0437 21.8966 97.6214C21.6033 97.5526 21.3112 97.4849 21.0202 97.4202C19.2641 97.0173 16.7151 96.6349 14.8685 97.942C14.8293 97.969 14.7751 97.9602 14.7475 97.9196C14.7198 97.879 14.7296 97.8237 14.7694 97.7955C16.6713 96.4491 19.2687 96.8367 21.0577 97.2461C21.3487 97.3102 21.6414 97.3791 21.9346 97.4473C23.7231 97.8649 25.5737 98.2978 27.3489 97.832C28.6776 97.479 29.8403 96.6414 30.9644 95.8309C31.5792 95.3879 32.2147 94.9297 32.8761 94.5497C36.1747 92.6357 39.7792 92.8315 42.2222 93.3315C43.4172 93.5633 44.611 93.9321 45.7691 94.428C49.1092 95.8638 52.0079 98.0449 55.3335 100.877C55.6228 101.11 55.912 101.361 56.1909 101.604C56.3695 101.759 56.5481 101.914 56.7302 102.068C56.7999 102.124 56.8713 102.186 56.9428 102.248C57.0131 102.309 57.0822 102.369 57.1525 102.426C57.7362 102.93 58.317 103.429 58.8995 103.928C59.6537 104.575 60.4096 105.224 61.1696 105.884C61.2065 105.916 61.2111 105.972 61.18 106.009C61.1638 106.029 61.139 106.041 61.1143 106.041Z" fill="#4F1F37"/>
<path d="M55.3035 101.14C55.269 101.14 55.2367 101.118 55.2223 101.084C55.2114 101.057 55.2079 101.032 55.2044 101.012C55.2021 100.998 55.2004 100.987 55.1964 100.978C54.4082 97.2284 55.4966 93.5597 56.5486 91.1398C57.2199 89.5969 58.1147 87.9764 59.3644 86.0405C59.9613 85.1005 60.5986 84.1582 61.2139 83.2477L61.7371 82.4724C63.1521 80.3442 64.4318 78.2366 64.5361 75.8602C64.6202 74.2079 64.1023 72.5897 63.6021 71.0245C63.3699 70.2992 63.1297 69.5486 62.9499 68.7992C62.3109 66.2217 62.338 63.4953 63.0283 60.9153C63.0409 60.8683 63.087 60.8395 63.136 60.853C63.1827 60.8659 63.2098 60.9148 63.1971 60.9624C62.5137 63.5123 62.4867 66.2075 63.1193 68.7557C63.2979 69.4992 63.537 70.2463 63.7681 70.9686C64.2734 72.5491 64.796 74.1832 64.7107 75.8679C64.6035 78.2901 63.3112 80.4213 61.8811 82.5718L61.3574 83.3482C60.7426 84.2576 60.1065 85.1988 59.5107 86.1376C58.2662 88.0658 57.376 89.6781 56.7088 91.2116C55.6671 93.6068 54.5885 97.2367 55.364 100.926C55.3698 100.938 55.3738 100.962 55.3767 100.981C55.379 100.995 55.3808 101.007 55.3848 101.017C55.4026 101.062 55.3808 101.114 55.3364 101.132C55.3254 101.138 55.3145 101.14 55.3035 101.14Z" fill="#4F1F37"/>
<path d="M51.9503 83.1377C51.4547 81.7642 52.5685 80.1625 53.964 79.8666C55.3767 79.5713 56.8385 80.3572 57.7212 81.4889C58.6189 82.6389 59.0412 84.0918 59.3316 85.5176C59.3667 85.7082 59.4025 85.8994 59.4376 86.0899C58.3895 87.7134 57.4043 89.394 56.6288 91.1769C55.3018 94.2309 54.5955 97.6937 55.2782 100.946C52.3271 98.4319 49.2676 96.0291 45.7362 94.5103C44.6023 94.0244 43.4258 93.6556 42.2055 93.4191C41.0145 91.7327 40.0218 89.8739 39.6582 88.1005C39.5459 87.6128 39.4871 87.0781 39.6087 86.5923C39.921 85.387 41.2922 84.7641 42.4884 84.8788C43.7001 85.0117 44.7683 85.697 45.7875 86.3617C44.7585 84.9617 44.1558 83.2547 44.0734 81.5218C43.9887 79.8225 44.8743 77.7072 46.5262 77.7737C47.2274 77.7966 47.8306 78.2219 48.3653 78.6584C49.8438 79.8889 51.0797 81.4259 51.9503 83.1377Z" fill="#4F1F37"/>
<path d="M216.178 216.132C216.124 216.116 216.071 216.093 216.021 216.063C215.675 215.861 215.555 215.41 215.753 215.057C228.433 192.482 247.926 173.551 270.642 161.749C270.997 161.565 271.434 161.709 271.614 162.072C271.795 162.435 271.653 162.879 271.297 163.064C248.828 174.737 229.547 193.462 217.007 215.79C216.838 216.092 216.491 216.225 216.178 216.132Z" fill="#4F1F37"/>
<path d="M236.191 189.204C236.135 189.187 236.081 189.163 236.029 189.132C235.685 188.926 235.568 188.477 235.768 188.123C236.406 187.004 237.973 185.652 239.191 185.171C249.809 180.963 260.968 178.71 272.358 178.474C272.76 178.465 273.086 178.79 273.095 179.197C273.103 179.604 272.786 179.94 272.387 179.949C261.167 180.181 250.174 182.402 239.713 186.547C238.801 186.907 237.491 188.034 237.018 188.865C236.847 189.165 236.502 189.297 236.191 189.204Z" fill="#4F1F37"/>
<path d="M244.351 181.033C243.998 180.928 243.775 180.564 243.844 180.188C245.342 172.071 248.025 164.257 251.819 156.962C252.006 156.602 252.443 156.466 252.796 156.656C253.149 156.847 253.283 157.294 253.096 157.653C249.37 164.816 246.735 172.49 245.264 180.461C245.189 180.862 244.812 181.124 244.42 181.049C244.396 181.046 244.373 181.04 244.351 181.033Z" fill="#4F1F37"/>
<path d="M244.107 154.393C243.944 158.153 246.796 161.337 250.479 161.504C254.162 161.671 257.28 158.758 257.443 154.999C257.607 151.239 254.754 148.056 251.072 147.889C247.39 147.722 244.272 150.633 244.107 154.393Z" fill="white"/>
<path d="M262.351 161.928C262.187 165.688 265.04 168.871 268.722 169.038C272.405 169.205 275.523 166.294 275.687 162.534C275.85 158.774 272.998 155.59 269.315 155.423C265.633 155.256 262.515 158.168 262.351 161.928Z" fill="white"/>
<path d="M261.566 179.927C261.402 183.687 264.255 186.871 267.938 187.038C271.621 187.205 274.739 184.293 274.902 180.533C275.066 176.773 272.214 173.59 268.531 173.423C264.848 173.256 261.73 176.168 261.566 179.927Z" fill="white"/>
<path d="M184.998 209.306C184.975 209.306 184.952 209.301 184.931 209.292C184.842 209.254 184.8 209.149 184.837 209.059C197.264 178.951 216.597 151.704 240.744 130.263C240.817 130.198 240.927 130.206 240.991 130.28C241.054 130.355 241.047 130.467 240.974 130.532C216.866 151.938 197.565 179.139 185.159 209.197C185.13 209.265 185.066 209.306 184.998 209.306Z" fill="#4F1F37"/>
<path d="M231.959 133.995C231.015 134.34 230.052 134.811 229.497 135.664C229.321 135.936 229.188 136.261 229.24 136.583C229.316 137.05 229.771 137.376 230.23 137.447C230.688 137.519 231.153 137.394 231.601 137.269C232.376 137.054 233.152 136.838 233.927 136.623C234.008 137.978 234.363 139.315 234.961 140.527C235.266 141.144 235.726 141.791 236.399 141.86C236.896 141.911 237.381 141.612 237.669 141.197C237.958 140.783 238.077 140.269 238.131 139.763C238.304 138.15 237.901 134.873 236.63 133.704C235.418 132.588 233.295 133.508 231.959 133.995Z" fill="#4F1F37"/>
<path d="M234.626 133.437C225.678 126.859 219.059 117.05 216.228 106.171C215.243 102.387 214.726 98.2632 216.16 94.6321C217.593 91.0004 221.52 88.1658 225.223 89.1834C224.857 84.5335 227.718 79.8572 231.799 77.7578C235.878 75.6585 241.061 76.152 244.818 78.8066C246.414 77.3432 248.905 76.7449 251.043 76.9332C253.181 77.122 255.214 78.1143 256.828 79.5578C260.087 82.4712 261.578 87.2958 260.548 91.5916C262.767 90.2463 265.804 90.3234 268.217 91.2592C270.63 92.1951 272.579 94.2968 273.364 96.8073C274.114 99.2096 273.82 101.825 273.236 104.275C275.119 103.668 277.736 104.881 279.269 106.152C280.801 107.424 281.65 109.506 281.452 111.513C281.246 113.613 280.009 115.439 278.811 117.16C278.421 117.721 278.029 118.283 277.639 118.845C280.253 122.683 281.153 128.035 279.739 132.482C278.325 136.928 274.79 140.615 270.466 142.154C267.488 143.214 264.258 143.283 261.112 143.058C251.721 142.386 242.265 139.052 234.626 133.437Z" fill="#FF9280"/>
<path d="M236.66 135.491C236.652 135.491 236.644 135.49 236.635 135.487C236.589 135.474 236.562 135.424 236.576 135.377C236.854 134.404 237.125 133.441 237.394 132.48C237.605 131.727 237.816 130.977 238.03 130.225C238.051 130.139 238.077 130.049 238.103 129.959C238.13 129.868 238.156 129.777 238.178 129.687C238.241 129.454 238.307 129.225 238.373 128.996C238.476 128.637 238.583 128.265 238.673 127.899C239.848 123.659 240.614 120.083 240.538 116.404C240.51 115.134 240.355 113.883 240.077 112.686C239.536 110.233 238.259 106.836 235.245 104.573C234.642 104.117 233.978 103.714 233.335 103.324C232.138 102.597 230.9 101.846 230.024 100.726C228.857 99.2278 228.486 97.3049 228.126 95.4456C228.067 95.1438 228.01 94.8438 227.948 94.5462C227.592 92.7451 226.896 90.2128 224.974 89.0234C224.933 88.9975 224.92 88.9434 224.944 88.901C224.97 88.8581 225.024 88.8458 225.064 88.8711C227.046 90.0963 227.757 92.6762 228.119 94.5097C228.18 94.8068 228.238 95.1085 228.297 95.4103C228.653 97.2491 229.02 99.1496 230.16 100.614C231.017 101.708 232.241 102.451 233.424 103.169C234.07 103.562 234.739 103.968 235.348 104.429C238.406 106.725 239.7 110.165 240.247 112.646C240.528 113.854 240.684 115.117 240.713 116.4C240.789 120.1 240.02 123.691 238.842 127.945C238.751 128.311 238.644 128.685 238.54 129.046C238.475 129.273 238.409 129.502 238.346 129.732C238.324 129.822 238.297 129.915 238.27 130.009C238.245 130.097 238.22 130.185 238.198 130.271C237.984 131.026 237.774 131.776 237.563 132.528C237.293 133.489 237.022 134.453 236.744 135.426C236.732 135.466 236.697 135.491 236.66 135.491Z" fill="#4F1F37"/>
<path d="M238.675 128.076C238.653 128.076 238.631 128.068 238.615 128.051C238.579 128.017 238.579 127.961 238.612 127.925C238.631 127.904 238.652 127.891 238.669 127.879C238.681 127.872 238.689 127.866 238.696 127.859C241.729 125.595 245.454 125.114 248.047 125.109C248.06 125.109 248.075 125.109 248.089 125.109C249.73 125.109 251.532 125.282 253.755 125.655C254.839 125.829 255.94 126.038 257.005 126.241L257.915 126.413C260.396 126.865 262.803 127.198 264.97 126.328C266.482 125.732 267.717 124.591 268.913 123.487C269.468 122.974 270.042 122.444 270.639 121.971C272.685 120.323 275.134 119.237 277.723 118.83C277.769 118.823 277.816 118.856 277.822 118.905C277.83 118.954 277.797 118.999 277.75 119.007C275.191 119.409 272.769 120.483 270.747 122.111C270.154 122.581 269.583 123.108 269.031 123.618C267.824 124.734 266.575 125.886 265.034 126.493C262.825 127.381 260.391 127.045 257.884 126.588L256.974 126.415C255.91 126.213 254.81 126.004 253.728 125.831C251.514 125.459 249.721 125.286 248.089 125.286C248.075 125.286 248.062 125.286 248.048 125.286C245.481 125.292 241.794 125.766 238.81 127.992C238.802 128.003 238.782 128.017 238.766 128.028C238.754 128.035 238.745 128.041 238.738 128.048C238.721 128.066 238.698 128.076 238.675 128.076Z" fill="#4F1F37"/>
<path d="M253.331 117.56C254.357 116.539 256.244 116.923 257.077 118.104C257.917 119.301 257.81 120.984 257.158 122.268C256.495 123.574 255.367 124.559 254.21 125.411C254.054 125.521 253.898 125.632 253.741 125.743C251.862 125.428 249.958 125.194 248.047 125.198C244.774 125.205 241.389 125.958 238.759 127.921C239.804 124.145 240.707 120.313 240.626 116.402C240.598 115.147 240.449 113.9 240.163 112.666C241.186 110.868 242.444 109.185 243.881 108.123C244.272 107.82 244.726 107.547 245.211 107.463C246.416 107.262 247.532 108.287 247.917 109.449C248.292 110.633 248.114 111.909 247.935 113.13C248.768 111.6 250.049 110.342 251.566 109.559C253.052 108.788 255.305 108.751 255.919 110.318C256.184 110.981 256.05 111.717 255.877 112.393C255.377 114.272 254.507 116.05 253.331 117.56Z" fill="#4F1F37"/>
<path d="M234.409 22.6747C246.439 34.8685 215.191 77.709 168.049 110.818C120.906 143.926 74.1276 158.181 63.6914 142.571C52.9291 126.472 81.5931 91.2339 130.51 55.2191C178.246 20.0724 221.054 9.13682 234.409 22.6747Z" fill="#FFCC7A"/>
<path d="M169.738 48.334C151.971 52.6933 138.583 67.884 129.778 84.2318C117.951 106.192 112.372 131.358 111.927 156.415C111.673 170.721 113.08 185.192 117.65 198.719C122.22 212.245 130.107 224.821 141.25 233.498C152.519 242.272 166.578 246.69 180.658 248.332C187.791 249.164 195.137 249.307 202.023 247.231C216.887 242.751 227.222 228.596 232.518 213.727C243.08 184.078 236.6 148.792 216.237 125.062C213.404 121.761 210.279 118.597 208.469 114.616C203.91 104.586 208.874 93.0151 209.839 82.0018C211.112 67.4617 204.644 52.455 193.283 43.59C186.385 43.6541 176.445 46.6887 169.738 48.334Z" fill="#4F1F37"/>
<path d="M182.692 282.459C173.643 284.764 164.251 286.128 154.597 286.466C153.813 286.494 153.014 286.508 152.243 286.536C151.444 286.564 150.617 286.564 149.819 286.564C149.296 286.564 148.759 286.564 148.235 286.536C147.436 286.536 146.665 286.508 145.866 286.494H145.618C131.737 286.059 118.364 283.514 105.818 279.127L40.3329 230.227C40.3329 230.227 41.0214 225.152 41.476 222.719C41.5861 222.171 41.6961 221.623 41.8206 221.074C41.903 220.653 41.9859 220.231 42.0821 219.809C43.0461 215.493 44.2854 211.5 45.8693 208.027C47.2187 205.074 48.6787 202.305 50.2765 199.704C50.5104 199.296 50.7725 198.889 51.0341 198.494C51.7641 197.327 52.535 196.203 53.3336 195.106C53.7744 194.473 54.229 193.869 54.7107 193.265C55.8538 191.788 57.0522 190.382 58.3054 189.047C68.9507 177.574 82.9845 171.176 99.841 169.096H99.8548C100.846 168.969 101.838 168.871 102.843 168.772L111.946 163.514L116.395 160.956L124.41 156.33L129.464 161.926L157.917 193.405C157.917 193.405 169.265 206.27 176.564 221.946C178.988 227.177 180.971 232.702 181.949 238.171C182.444 240.997 182.775 244.554 182.982 248.575C183.476 258.543 183.187 271.295 182.692 282.459Z" fill="#FF794F"/>
<path d="M177.733 223.677C177.667 223.677 177.602 223.646 177.56 223.588C165.425 206.953 122.863 185.815 122.434 185.604C122.378 185.576 122.337 185.525 122.32 185.464C122.304 185.402 122.314 185.336 122.349 185.283L129.2 174.793L89.0868 167.315C88.9693 167.294 88.8915 167.179 88.9128 167.058C88.9341 166.94 89.0448 166.86 89.1646 166.881L129.601 174.419C129.672 174.432 129.733 174.481 129.761 174.55C129.789 174.618 129.782 174.696 129.741 174.759L122.846 185.318C126.212 187.002 166.168 207.231 177.907 223.324C177.979 223.422 177.958 223.56 177.863 223.633C177.823 223.662 177.778 223.677 177.733 223.677Z" fill="#4F1F37"/>
<path d="M148.317 164.47C148.083 169.644 157.627 192.688 157.916 193.405L105.886 152.745L129.202 93.3562L129.256 93.2015L130.028 91.2334L135.179 98.0943L151.088 128.297L154.349 143.62C151.512 151.985 148.441 161.644 148.317 164.47Z" fill="#FF9280"/>
<path d="M159.1 130.01C159.1 130.01 156.814 136.323 154.349 143.62C147.256 138.586 141.762 131.486 137.933 123.795C133.209 114.263 130.855 103.803 129.202 93.3563C129.188 93.2721 129.174 93.2015 129.161 93.1174C129.188 93.1457 129.23 93.1739 129.257 93.2016C131.254 94.8327 133.237 96.4632 135.179 98.0944L159.1 130.01Z" fill="#4F1F37"/>
<path d="M202.697 73.0474C202.697 50.6445 184.908 32.4838 162.965 32.4838C141.021 32.4838 123.232 50.6445 123.232 73.0474C123.232 84.1795 127.627 94.2609 134.739 101.591C138.84 131.259 162.794 143.49 181.6 136.466C197.504 130.526 201.533 91.0034 202.45 77.5349C202.609 76.0603 202.697 74.565 202.697 73.0474Z" fill="#FF9280"/>
<path d="M157.69 111.144C162.849 111.144 167.03 106.875 167.03 101.609C167.03 96.3429 162.849 92.0739 157.69 92.0739C152.532 92.0739 148.351 96.3429 148.351 101.609C148.351 106.875 152.532 111.144 157.69 111.144Z" fill="#FF794F"/>
<path d="M185.89 109.659C185.325 109.66 184.729 109.483 184.302 109.321L181.792 108.369C181.679 108.326 181.62 108.198 181.662 108.082C181.705 107.967 181.832 107.908 181.943 107.951L184.453 108.903C185.039 109.125 186.453 109.551 186.931 108.709C187.092 108.424 187.095 108.071 187.081 107.638C186.83 99.6572 186.549 91.5339 186.247 83.4959C186.242 83.3724 186.336 83.2689 186.456 83.2642C186.572 83.2477 186.678 83.3554 186.683 83.4783C186.986 91.5181 187.267 99.6419 187.518 107.623C187.531 108.02 187.547 108.514 187.31 108.932C186.999 109.482 186.459 109.659 185.89 109.659Z" fill="#4F1F37"/>
<path d="M173.451 89.4664C173.375 91.5116 171.914 93.1151 170.189 93.0486C168.463 92.9821 167.126 91.2698 167.201 89.2252C167.277 87.1799 168.738 85.5765 170.464 85.6435C172.189 85.7094 173.527 87.4217 173.451 89.4664Z" fill="#4F1F37"/>
<path d="M197.323 89.5905C197.253 91.4892 195.897 92.9786 194.295 92.9168C192.692 92.8551 191.45 91.2651 191.52 89.3664C191.591 87.4676 192.947 85.9782 194.549 86.04C196.152 86.1023 197.394 87.6917 197.323 89.5905Z" fill="#4F1F37"/>
<path d="M164.372 79.9755C164.331 79.9755 164.288 79.9649 164.25 79.9425C164.13 79.8731 164.088 79.7184 164.156 79.5961C164.934 78.1949 166.322 77.1679 167.868 76.8497C169.415 76.5314 171.084 76.9279 172.333 77.9126C172.442 77.9984 172.463 78.1579 172.379 78.269C172.294 78.3808 172.137 78.4002 172.029 78.3149C170.891 77.4196 169.372 77.0591 167.966 77.3485C166.559 77.6385 165.296 78.5726 164.588 79.8472C164.543 79.929 164.459 79.9755 164.372 79.9755Z" fill="#4F1F37"/>
<path d="M199.258 80.1613C199.172 80.1613 199.091 80.1096 199.055 80.0231C198.593 78.8802 197.658 78.0979 196.554 77.9302C195.437 77.7602 194.168 78.2196 193.16 79.1572C193.071 79.2396 192.932 79.2343 192.851 79.1425C192.769 79.0514 192.776 78.9102 192.865 78.8272C193.97 77.8008 195.373 77.3002 196.618 77.489C197.876 77.6796 198.938 78.5637 199.459 79.8537C199.505 79.9672 199.452 80.0984 199.341 80.1449C199.314 80.156 199.286 80.1613 199.258 80.1613Z" fill="#4F1F37"/>
<path d="M182.146 115.419C181.376 115.419 180.607 115.287 179.89 115.022C178.215 114.402 176.786 113.039 176.067 111.374C176.011 111.246 176.069 111.095 176.194 111.039C176.32 110.982 176.467 111.039 176.523 111.169C177.188 112.709 178.51 113.97 180.06 114.544C181.61 115.117 183.416 115.014 184.893 114.268C185.017 114.205 185.166 114.257 185.227 114.383C185.287 114.509 185.237 114.661 185.114 114.723C184.201 115.185 183.172 115.419 182.146 115.419Z" fill="#4F1F37"/>
<path d="M197.599 52.945C193.3 46.8293 186.436 41.453 179.126 42.4412C171.817 43.4294 165.231 48.7728 162.639 55.8202C160.268 62.2683 161.141 69.4098 161.581 76.2832C162.021 83.1565 161.828 90.6028 157.811 96.1367C155.699 99.0467 152.596 101.162 149.188 102.138C145.206 103.278 141.462 101.96 137.459 102.192C135.807 102.288 133.966 102.915 133.307 104.465C131.348 109.074 136.976 116.195 138.193 120.491C139.455 124.951 139.939 129.59 140.431 134.19C141.301 142.327 139.547 150.998 134.411 157.282C127.882 165.269 117.196 168.186 107.099 169.589C97.0022 170.993 86.4767 171.41 77.3513 176.038C68.767 180.392 60.9742 185.898 55.1762 193.692C48.7116 202.38 45.2736 212.962 41.9433 223.33C29.2001 206.828 21.0421 186.562 23.7495 165.731C26.457 144.9 40.9563 125.245 60.8901 120.009C65.6406 118.761 70.5663 118.317 75.3174 117.071C87.2033 113.954 97.6821 105.616 103.545 94.6109C107.642 86.9205 107.544 79.3084 111.629 71.6116C113.488 68.1081 115.818 62.3953 117.982 59.0795C125.086 48.2004 135.496 39.6054 147.403 34.7896C156.608 31.0668 166.915 29.601 176.495 32.1526C186.074 34.7043 194.962 41.9965 197.599 52.945Z" fill="#4F1F37"/>
<path d="M102.597 78.0955C102.597 78.0955 92.6262 43.3041 118.971 25.2187C145.315 7.13391 172.664 18.7818 179.227 26.6504C179.227 26.6504 164.723 32.3038 140.989 47.9192C121.247 60.9077 103.599 77.1337 102.597 78.0955Z" fill="#FFCC7A"/>
<path d="M65.5663 120.174C65.5323 120.174 65.4983 120.165 65.4666 120.149C65.3606 120.093 65.3191 119.96 65.3744 119.851C65.4943 119.617 77.7604 96.0373 113.021 68.5646C149.548 40.106 167.862 30.3309 187.151 23.0635C206.771 15.6713 222.654 14.6567 231.874 20.2089C231.977 20.2706 232.011 20.4059 231.951 20.5106C231.889 20.6159 231.756 20.6494 231.655 20.5888C222.548 15.1055 206.796 16.1325 187.301 23.4776C168.05 30.7303 149.767 40.4901 113.283 68.9157C78.1067 96.322 65.8774 119.821 65.7582 120.055C65.719 120.131 65.6441 120.174 65.5663 120.174Z" fill="#4F1F37"/>
<path d="M168.906 285.2C168.672 285.229 168.438 285.257 168.218 285.284C165.945 261.847 165.436 238.227 166.703 214.691C166.744 213.679 166.799 212.681 166.868 211.682C166.965 209.939 167.075 208.209 167.199 206.48C167.213 206.325 167.227 206.171 167.24 206.016C167.24 205.89 167.254 205.777 167.268 205.651C167.268 205.637 167.268 205.637 167.268 205.637C167.309 205.004 167.35 204.357 167.406 203.725C167.42 203.528 167.557 203.373 167.777 203.401C167.97 203.416 168.108 203.584 168.094 203.781C168.025 204.61 167.97 205.454 167.915 206.284C167.86 207.043 167.805 207.788 167.75 208.533C167.681 209.588 167.612 210.642 167.557 211.696C167.433 213.749 167.323 215.802 167.227 217.84C167.103 220.512 167.006 223.169 166.923 225.826C166.331 245.637 166.991 265.474 168.906 285.2Z" fill="#4F1F37"/>
<path d="M155.457 203.704C151.359 202.994 147.208 202.643 143.057 202.413C134.75 201.953 125.946 202.1 118.795 206.44C117.099 207.469 115.337 209.289 115.959 211.2C116.348 212.395 117.556 213.099 118.731 213.483C121.636 214.431 124.779 214.081 127.798 213.635C138.028 212.124 148.12 209.632 157.895 206.201C156.825 205.431 156.146 204.441 155.186 203.531C155.273 203.607 155.371 203.627 155.457 203.704Z" fill="#FFEAE8"/>
<path d="M166.475 202.967C163.492 200.601 160.331 198.503 157.125 196.504C150.708 192.502 143.665 188.776 136.346 189.171C134.611 189.265 132.523 189.971 132.292 191.792C132.148 192.931 132.84 194.03 133.626 194.854C135.572 196.892 138.2 197.98 140.764 198.937C149.455 202.181 158.407 204.568 167.464 206.057C166.907 204.964 166.744 203.865 166.327 202.708C166.366 202.808 166.436 202.867 166.475 202.967Z" fill="#FFEAE8"/>
<path d="M156.944 205.607C145.191 211.575 132.991 217.936 126.067 228.775C124.931 230.552 124.018 233.025 125.541 234.817C126.509 235.955 128.183 236.342 129.579 236.096C130.974 235.849 132.149 235.082 133.246 234.285C138.36 230.568 142.599 225.9 146.73 221.2C151.042 216.295 155.273 211.321 159.448 206.304C158.502 206.083 157.89 205.827 156.944 205.607Z" fill="#FFEAE8"/>
<path d="M179.092 203.865C190.053 201.998 201.524 200.165 212.088 203.685C213.821 204.262 215.798 205.384 215.817 207.244C215.828 208.426 214.96 209.472 213.918 209.985C212.875 210.499 211.684 210.577 210.526 210.6C205.128 210.706 199.765 209.793 194.454 208.808C188.909 207.779 183.38 206.67 177.861 205.505C178.35 204.912 178.603 204.457 179.092 203.865Z" fill="#FFEAE8"/>
<path d="M171.015 201.091C180.31 194.68 190.065 188.112 200.317 188.167C201.998 188.175 204.031 188.728 204.5 190.901C204.798 192.282 204.281 193.842 203.479 194.845C202.677 195.849 201.636 196.4 200.612 196.872C195.837 199.077 190.845 200.073 185.881 200.964C180.699 201.896 175.511 202.726 170.319 203.487C170.61 202.604 170.724 201.974 171.015 201.091Z" fill="#FFEAE8"/>
<path d="M160.878 207.025C151.807 216.222 142.427 225.925 138.744 238.305C138.14 240.334 137.891 242.959 139.649 244.206C140.765 244.997 142.339 244.864 143.521 244.211C144.704 243.558 145.571 242.476 146.363 241.39C150.057 236.324 152.758 230.617 155.356 224.91C158.068 218.954 160.693 212.959 163.258 206.937C162.368 207.011 161.768 206.951 160.878 207.025Z" fill="#FFEAE8"/>
<path d="M165.657 206.921C158.621 218.19 151.399 230.029 150.893 242.96C150.81 245.08 151.261 247.681 153.449 248.424C154.838 248.897 156.455 248.354 157.52 247.413C158.586 246.472 159.204 245.198 159.741 243.941C162.247 238.075 163.534 231.851 164.714 225.654C165.946 219.186 167.075 212.703 168.135 206.21C167.22 206.516 166.572 206.615 165.657 206.921Z" fill="#FFEAE8"/>
<path d="M168.338 206.58C166.836 219.77 165.41 233.555 170.382 245.458C171.197 247.41 172.687 249.568 174.933 249.306C176.361 249.14 177.564 247.958 178.112 246.653C178.66 245.347 178.673 243.932 178.621 242.566C178.38 236.195 176.91 230.019 175.356 223.914C173.735 217.543 172.016 211.201 170.232 204.88C169.552 205.547 169.02 205.914 168.338 206.58Z" fill="#FFEAE8"/>
<path d="M174.001 206.952C183.016 216.67 192.32 226.912 195.193 239.516C195.663 241.583 195.695 244.225 193.672 245.376C192.387 246.106 190.69 245.884 189.465 245.164C188.241 244.444 187.396 243.313 186.635 242.18C183.084 236.9 180.671 231.032 178.369 225.173C175.966 219.056 173.661 212.904 171.423 206.73C172.384 206.854 173.042 206.828 174.001 206.952Z" fill="#FFEAE8"/>
<path d="M178.223 206.062C190.4 210.983 203.054 216.254 210.884 226.431C212.168 228.1 213.293 230.479 211.944 232.391C211.088 233.606 209.464 234.135 208.059 234.01C206.654 233.885 205.422 233.223 204.265 232.526C198.865 229.272 194.249 224.998 189.736 220.683C185.026 216.178 180.389 211.599 175.804 206.972C176.723 206.671 177.305 206.364 178.223 206.062Z" fill="#FFEAE8"/>
<path d="M161.975 197.555C158.889 194.736 155.76 191.866 153.56 188.283C152.508 186.569 151.665 184.608 151.815 182.591C151.966 180.574 153.374 178.549 155.34 178.295C157.567 178.007 159.428 179.903 160.898 181.636C162.004 182.94 163.123 184.263 163.855 185.817C164.449 187.08 164.769 188.456 165.084 189.819C166.157 194.461 167.23 199.102 168.303 203.744C166.31 201.433 164.085 199.709 161.975 197.555Z" fill="#FFEAE8"/>
<path d="M173.785 196.209C176.208 192.78 178.662 189.292 180.059 185.312C180.727 183.408 181.14 181.308 180.57 179.37C180 177.433 178.199 175.763 176.226 175.944C173.99 176.15 172.569 178.409 171.497 180.423C170.691 181.938 169.875 183.476 169.487 185.154C169.171 186.517 169.148 187.931 169.126 189.332C169.051 194.1 168.977 198.869 168.902 203.637C170.364 200.944 172.175 198.774 173.785 196.209Z" fill="#FFEAE8"/>
<path d="M165.419 195.606C160.309 195.765 155.628 197.229 152.219 200.383C151.419 201.123 150.695 201.954 150.349 202.963C149.506 205.422 151.493 207.39 154.023 208.652C160.404 211.839 167.767 212.246 174.303 211.166C177.331 210.666 180.351 209.814 182.387 207.929C183.646 206.765 184.482 205.027 183.763 203.316C181.483 197.897 174.19 196.07 168.724 195.677C167.608 195.598 166.504 195.573 165.419 195.606Z" fill="#FF9280"/>
<path d="M215.248 243.148C214.146 244.118 213.058 245.103 211.97 246.114C211.97 246.114 211.956 246.114 211.942 246.128C211.804 246.255 211.667 246.381 211.515 246.508C211.501 246.537 211.487 246.55 211.474 246.564C210.757 247.239 210.027 247.914 209.325 248.603C198.831 258.726 189.576 270.199 181.836 282.67C181.52 282.754 181.189 282.824 180.873 282.895C188.708 270.157 198.128 258.431 208.829 248.097C209.517 247.436 210.22 246.775 210.922 246.115C211.115 245.932 211.308 245.75 211.501 245.581H211.515C211.625 245.468 211.735 245.356 211.845 245.257C212.011 245.103 212.176 244.962 212.341 244.807C213.153 244.062 213.966 243.331 214.792 242.614C214.944 242.487 215.15 242.501 215.275 242.656C215.399 242.796 215.385 243.021 215.248 243.148Z" fill="#4F1F37"/>
<path d="M207.66 245.806C206.879 246.085 206.083 246.47 205.621 247.171C205.473 247.394 205.363 247.662 205.404 247.928C205.465 248.314 205.839 248.584 206.216 248.646C206.595 248.708 206.978 248.606 207.349 248.505C207.989 248.331 208.63 248.157 209.271 247.983C209.332 249.102 209.619 250.207 210.108 251.21C210.357 251.721 210.734 252.256 211.289 252.316C211.698 252.361 212.1 252.117 212.339 251.775C212.58 251.435 212.681 251.011 212.727 250.594C212.877 249.264 212.559 246.558 211.516 245.587C210.52 244.661 208.764 245.41 207.66 245.806Z" fill="#4F1F37"/>
<path d="M209.862 245.357C202.508 239.887 197.091 231.762 194.804 222.771C194.008 219.644 193.6 216.239 194.8 213.249C195.999 210.259 199.252 207.939 202.304 208.796C202.023 204.957 204.405 201.112 207.782 199.399C211.158 197.685 215.432 198.117 218.52 200.325C219.844 199.124 221.902 198.643 223.665 198.809C225.428 198.974 227.102 199.803 228.427 201.002C231.104 203.422 232.312 207.41 231.442 210.949C233.279 209.85 235.785 209.928 237.772 210.711C239.758 211.495 241.358 213.238 241.993 215.313C242.602 217.299 242.348 219.456 241.855 221.475C243.411 220.983 245.565 221.996 246.824 223.053C248.083 224.109 248.774 225.832 248.602 227.486C248.422 229.218 247.393 230.719 246.397 232.134C246.072 232.595 245.747 233.057 245.422 233.519C247.562 236.698 248.28 241.119 247.093 244.781C245.906 248.444 242.972 251.469 239.397 252.719C236.935 253.579 234.269 253.621 231.674 253.421C223.929 252.823 216.141 250.027 209.862 245.357Z" fill="#FFCC7A"/>
<path d="M211.532 247.164C211.516 247.164 211.5 247.161 211.483 247.157C211.392 247.128 211.34 247.031 211.367 246.938C211.601 246.14 211.827 245.348 212.054 244.558C212.232 243.937 212.409 243.316 212.59 242.695C212.607 242.626 212.629 242.552 212.651 242.478C212.673 242.404 212.694 242.329 212.713 242.256C212.765 242.066 212.819 241.883 212.873 241.702C212.963 241.394 213.052 241.089 213.13 240.781C214.117 237.298 214.764 234.359 214.719 231.332C214.701 230.289 214.58 229.264 214.358 228.284C213.926 226.273 212.896 223.486 210.446 221.624C209.954 221.247 209.409 220.912 208.881 220.589C207.889 219.98 206.864 219.349 206.135 218.406C205.163 217.143 204.861 215.539 204.571 213.989C204.525 213.743 204.479 213.497 204.431 213.254C204.147 211.784 203.593 209.717 202.047 208.749C201.966 208.698 201.941 208.589 201.99 208.507C202.04 208.425 202.145 208.397 202.227 208.449C203.889 209.49 204.473 211.65 204.769 213.183C204.818 213.428 204.863 213.675 204.91 213.922C205.193 215.431 205.486 216.992 206.406 218.188C207.096 219.079 208.049 219.666 209.059 220.286C209.593 220.614 210.146 220.955 210.652 221.342C212.658 222.866 214.057 225.24 214.694 228.205C214.92 229.208 215.045 230.258 215.063 231.325C215.109 234.396 214.456 237.363 213.462 240.873C213.385 241.179 213.294 241.489 213.203 241.801C213.148 241.982 213.096 242.162 213.045 242.344C213.028 242.419 213.004 242.498 212.981 242.578C212.959 242.648 212.939 242.718 212.921 242.787C212.74 243.414 212.562 244.033 212.383 244.656C212.157 245.445 211.93 246.237 211.698 247.038C211.675 247.115 211.606 247.164 211.532 247.164Z" fill="#4F1F37"/>
<path d="M213.231 241.053C213.189 241.053 213.146 241.038 213.114 241.006C213.044 240.939 213.037 240.83 213.103 240.759C213.111 240.75 213.156 240.713 213.167 240.706C215.697 238.84 218.761 238.447 220.913 238.447C220.933 238.447 220.954 238.447 220.974 238.447C222.345 238.451 223.846 238.603 225.699 238.926C226.572 239.07 227.459 239.245 228.316 239.412L229.13 239.57C231.158 239.953 233.126 240.237 234.898 239.54C236.131 239.06 237.103 238.172 238.135 237.23C238.596 236.81 239.072 236.373 239.57 235.984C241.279 234.625 243.322 233.733 245.476 233.407C245.58 233.389 245.657 233.461 245.672 233.555C245.685 233.651 245.621 233.741 245.527 233.756C243.431 234.073 241.445 234.939 239.781 236.263C239.293 236.646 238.821 237.076 238.364 237.493C237.355 238.414 236.313 239.367 235.02 239.868C233.169 240.596 231.147 240.306 229.066 239.916L228.251 239.757C227.396 239.589 226.513 239.416 225.643 239.272C223.807 238.953 222.325 238.803 220.974 238.799C220.953 238.799 220.933 238.799 220.913 238.799C218.812 238.799 215.825 239.179 213.398 240.968C213.397 240.969 213.361 240.996 213.36 240.997C213.325 241.034 213.278 241.053 213.231 241.053Z" fill="#4F1F37"/>
<path d="M225.369 232.344C226.221 231.506 227.776 231.832 228.459 232.811C229.146 233.803 229.05 235.191 228.506 236.248C227.953 237.322 227.018 238.13 226.06 238.827C225.93 238.917 225.801 239.008 225.672 239.099C224.122 238.83 222.552 238.628 220.975 238.622C218.275 238.612 215.477 239.217 213.298 240.824C214.179 237.714 214.94 234.556 214.891 231.328C214.874 230.292 214.757 229.262 214.526 228.242C215.378 226.764 216.424 225.381 217.616 224.512C217.939 224.263 218.315 224.04 218.715 223.973C219.711 223.813 220.627 224.664 220.94 225.625C221.243 226.604 221.091 227.655 220.938 228.662C221.633 227.404 222.696 226.371 223.951 225.733C225.18 225.103 227.039 225.083 227.539 226.38C227.755 226.928 227.64 227.534 227.495 228.092C227.073 229.641 226.347 231.105 225.369 232.344Z" fill="#4F1F37"/>
<path d="M91.8472 50.5815L92.0085 50.6715L91.8472 50.7615C88.2069 51.2909 86.3862 53.7044 85.5802 57.1596L85.492 57.3249L85.4033 57.1596C84.5333 53.6067 82.5524 51.5191 79.1363 50.7615L78.9744 50.6715L79.1363 50.5815C82.2971 49.628 84.5972 47.5404 85.4033 44.1835L85.492 44.0188L85.5802 44.1835C86.354 47.1816 87.8872 49.9539 91.8472 50.5815Z" fill="white"/>
<path d="M240.933 63.5041L241.095 63.5941L240.933 63.6847C237.293 64.2141 235.472 66.6275 234.666 70.0827L234.577 70.248L234.489 70.0827C233.619 66.5299 231.638 64.4423 228.222 63.6847L228.06 63.5941L228.222 63.5041C231.383 62.5506 233.683 60.463 234.489 57.106L234.577 56.9407L234.666 57.106C235.44 60.1048 236.974 62.877 240.933 63.5041Z" fill="white"/>
<path d="M257.81 199.913L257.972 200.003L257.81 200.093C254.17 200.623 252.35 203.036 251.543 206.491L251.455 206.657L251.367 206.491C250.497 202.938 248.516 200.851 245.1 200.093L244.938 200.003L245.1 199.913C248.261 198.96 250.561 196.872 251.367 193.515L251.455 193.35L251.543 193.515C252.318 196.513 253.851 199.286 257.81 199.913Z" fill="white"/>
<path d="M41.1084 141.993L41.3337 142.119L41.1084 142.245C36.037 142.982 33.5001 146.345 32.3766 151.159L32.2533 151.389L32.1299 151.159C30.9177 146.209 28.1584 143.301 23.3981 142.245L23.1728 142.119L23.3981 141.993C27.8018 140.665 31.0064 137.757 32.1299 133.079L32.2533 132.849L32.3766 133.079C33.4551 137.257 35.5916 141.119 41.1084 141.993Z" fill="white"/>
<path d="M105.818 279.126C104.358 278.635 102.898 278.086 101.466 277.523C100.763 277.256 100.075 276.989 99.3864 276.694C92.0598 273.728 85.064 270.114 78.4259 265.938C77.6682 265.46 76.9112 264.982 76.1673 264.49C75.4788 264.04 74.7903 263.576 74.1156 263.113C63.5526 255.872 53.9951 247.155 45.8284 237.257C45.3738 236.737 44.9469 236.202 44.5338 235.668C44.1622 235.218 43.7899 234.754 43.4321 234.291C43.3907 234.276 43.3636 234.248 43.3359 234.206C43.3221 234.206 43.3221 234.206 43.3359 234.178C42.3028 232.885 41.298 231.563 40.3335 230.227C40.3058 230.325 40.3058 230.41 40.2926 230.508C40.2649 230.354 40.224 230.199 40.1964 230.044C39.5078 226.825 39.1224 223.548 38.8741 220.245C38.8464 219.879 38.8193 219.5 38.8055 219.134C38.7917 219.106 38.7917 219.077 38.8055 219.05C38.7087 217.714 38.6401 216.379 38.5854 215.043C38.0899 203.387 38.7917 193.897 39.88 182.494C39.9354 181.904 39.9901 181.313 40.0454 180.723C40.1555 180.751 40.2517 180.779 40.3623 180.821C45.1411 182.213 49.7136 184.139 54.0516 186.529V186.543C54.4508 186.74 54.8501 186.965 55.2494 187.19C56.2825 187.781 57.3012 188.399 58.3066 189.046C58.4719 189.144 58.6373 189.256 58.8021 189.369C63.5123 192.406 67.905 195.977 71.9543 199.956C72.3122 200.307 72.6705 200.659 73.0422 201.024C79.2533 207.323 84.5967 214.592 88.907 222.339C91.6335 227.26 93.9889 232.364 95.9997 237.607C96.3304 238.437 96.6329 239.266 96.936 240.11C101.466 252.596 104.206 265.826 105.818 279.126Z" fill="#90D3D0"/>
<path d="M94.2769 266.684C96.6456 270.311 99.0419 273.925 101.466 277.524C100.763 277.257 100.075 276.989 99.3864 276.695C97.1693 273.391 94.966 270.058 92.7898 266.727C92.4868 266.291 92.1975 265.855 91.9221 265.419C87.8181 259.177 83.7416 252.906 79.6929 246.621C79.3483 246.087 79.0044 245.567 78.6736 245.033C75.0657 239.437 71.4986 233.827 67.9592 228.203C67.6152 227.669 67.2845 227.148 66.9537 226.614C61.5135 217.967 56.1292 209.279 50.8135 200.59C50.6343 200.294 50.4557 199.999 50.2765 199.704C46.7785 193.968 43.3082 188.231 39.8789 182.495C39.3695 181.651 38.8735 180.794 38.3635 179.95C38.1844 179.641 38.2812 179.247 38.5704 179.064C38.8735 178.881 39.2589 178.98 39.4381 179.275C39.7412 179.795 40.0581 180.301 40.3606 180.821C43.8861 186.712 47.4394 192.618 51.0335 198.494C51.1851 198.761 51.3499 199.043 51.5291 199.31C52.0384 200.167 52.5621 201.025 53.0991 201.883C53.5122 202.557 53.9254 203.232 54.3385 203.907C58.8556 211.275 63.4276 218.628 68.0277 225.967V225.981C68.3855 226.543 68.7439 227.091 69.1017 227.668C77.0753 240.322 85.1867 252.905 93.4086 265.362C93.6708 265.798 93.96 266.248 94.2769 266.684Z" fill="#4F1F37"/>
<path d="M68.4588 228.328C68.4046 228.328 68.3505 228.32 68.2969 228.307C63.4605 226.994 58.6137 225.663 53.7687 224.335C48.8373 222.981 43.9058 221.629 38.9836 220.294C38.6488 220.203 38.4489 219.852 38.5382 219.509C38.6275 219.169 38.9738 218.966 39.3074 219.054C44.2296 220.389 49.1622 221.743 54.0948 223.096C58.7071 224.361 63.3187 225.626 67.9212 226.877C69.0154 217.692 70.4062 208.437 72.0587 199.352C72.1203 199.004 72.4395 198.767 72.791 198.839C73.1321 198.903 73.3574 199.238 73.294 199.586C71.6035 208.885 70.1861 218.364 69.0828 227.763C69.0614 227.947 68.9629 228.112 68.8114 228.217C68.7065 228.291 68.5838 228.328 68.4588 228.328Z" fill="#4F1F37"/>
<path d="M53.7109 204.624C53.3646 204.624 53.0829 204.338 53.0817 203.983C53.0685 198.172 53.3952 192.303 54.0532 186.539C54.0952 186.187 54.4156 185.956 54.7509 185.975C55.096 186.017 55.3432 186.335 55.3029 186.688C54.6507 192.402 54.3269 198.221 54.3401 203.982C54.3401 204.335 54.0595 204.624 53.7121 204.625H53.7109V204.624Z" fill="#4F1F37"/>
<path d="M80.1884 246.185C80.1198 246.438 79.913 246.593 79.6929 246.621C79.6652 246.635 79.6237 246.635 79.5967 246.635C79.5281 246.635 79.4728 246.621 79.4036 246.607C68.3861 243.021 57.1208 239.886 45.8284 237.257C45.3738 236.737 44.9469 236.202 44.5338 235.668C56.0053 238.269 67.4775 241.404 78.6736 245.032C79.0453 245.144 79.4169 245.257 79.7891 245.384C80.1198 245.482 80.2984 245.847 80.1884 246.185Z" fill="#4F1F37"/>
<path d="M97.1555 238.016C97.0869 238.705 97.004 239.408 96.9354 240.111C96.0262 248.744 95.2276 257.503 94.6077 266.177C94.5939 266.402 94.4562 266.585 94.277 266.684C94.1807 266.74 94.0839 266.768 93.9739 266.768C93.9601 266.768 93.9601 266.768 93.9462 266.768C93.5608 266.754 93.1747 266.74 92.7893 266.726C87.9967 266.543 83.1764 266.29 78.4253 265.938C77.6677 265.46 76.9106 264.981 76.1667 264.49C81.3448 264.897 86.6467 265.207 91.9216 265.417C92.4171 265.431 92.8993 265.46 93.3948 265.474C93.3948 265.431 93.3948 265.404 93.4087 265.361C94.0695 256.209 94.9096 246.957 95.9012 237.875C95.915 237.776 95.9427 237.677 95.9974 237.608C96.1213 237.397 96.342 237.285 96.5897 237.312C96.9348 237.355 97.1826 237.665 97.1555 238.016Z" fill="#4F1F37"/>
</svg>
