<svg width="288" height="314" viewBox="0 0 288 314" fill="none" xmlns="http://www.w3.org/2000/svg">
<path fill-rule="evenodd" clip-rule="evenodd" d="M241.101 62.5778C240.05 63.4327 239.843 64.8365 239.302 66.0416C238.279 68.3267 237.087 70.3842 234.183 70.7099C232.648 70.8803 231.228 70.383 230.93 71.4525C230.663 72.3915 231.889 73.0428 232.192 73.3678C233.475 74.7348 234.468 76.168 234.36 78.5476C234.218 81.5232 232.3 85.4138 234.148 85.8542C235.506 86.1823 236.371 83.5421 236.843 82.686C238.371 79.9182 239.258 77.8981 242.131 76.9512C243.008 76.663 245.244 76.9156 245.482 75.6008C245.723 74.2595 243.891 73.7695 243.369 73.082C242.548 72.0094 242.026 70.3799 242.05 68.5008C242.076 66.7377 242.792 64.5249 242.56 63.2708C242.551 62.6949 241.998 62.0645 241.101 62.5778Z" fill="#F7BE4A"/>
<path fill-rule="evenodd" clip-rule="evenodd" d="M26.2091 246.456C27.2615 247.311 27.4676 248.712 28.0079 249.92C29.0313 252.207 30.2234 254.264 33.1268 254.587C34.6623 254.757 36.0832 254.26 36.3798 255.333C36.6475 256.27 35.421 256.921 35.1189 257.243C33.8345 258.61 32.8425 260.048 32.9502 262.425C33.093 265.401 35.0106 269.291 33.1619 269.734C31.8031 270.062 30.9403 267.42 30.4677 266.562C28.939 263.796 28.0522 261.774 25.1777 260.829C24.3014 260.542 22.0662 260.795 21.8281 259.478C21.5869 258.139 23.4177 257.649 23.9408 256.959C24.7605 255.888 25.2848 254.257 25.2608 252.38C25.2337 250.618 24.5186 248.406 24.7494 247.15C24.7599 246.573 25.3113 245.943 26.2091 246.456Z" fill="#F7BE4A"/>
<path fill-rule="evenodd" clip-rule="evenodd" d="M102.269 40.5445C101.142 41.2087 99.3986 41.6331 99.6251 43.173C99.9149 45.1135 102.336 44.464 103.538 45.1184C105.563 46.2216 105.841 49.4432 107.06 51.927C107.382 52.5691 107.726 53.4639 108.86 53.3112C110.312 53.1112 110.212 51.6725 110.139 49.9933C110.004 46.9833 110.475 44.2573 112.138 42.8388C113.14 41.9821 114.592 42.0845 114.353 40.4427C114.117 38.8188 112.666 39.3425 111.297 38.9696C109.118 38.3674 108.047 35.8548 107.059 33.3679C106.837 32.8135 106.687 32.0384 106.465 31.7691C105.658 30.8093 103.711 31.0399 103.329 32.4732C103.113 33.2747 103.566 34.2468 103.658 35.2023C103.857 37.3812 103.433 39.0628 102.269 40.5445Z" fill="#F7BE4A"/>
<path fill-rule="evenodd" clip-rule="evenodd" d="M265.17 277.966C264.271 278.495 262.883 278.835 263.062 280.061C263.294 281.606 265.222 281.088 266.179 281.61C267.792 282.49 268.014 285.054 268.986 287.029C269.241 287.542 269.515 288.255 270.418 288.134C271.575 287.976 271.495 286.831 271.437 285.494C271.329 283.096 271.704 280.925 273.028 279.794C273.828 279.112 274.983 279.194 274.793 277.888C274.606 276.592 273.45 277.009 272.361 276.71C270.626 276.234 269.77 274.231 268.984 272.25C268.808 271.809 268.688 271.193 268.511 270.977C267.869 270.211 266.318 270.397 266.014 271.54C265.841 272.176 266.202 272.95 266.275 273.71C266.433 275.449 266.095 276.786 265.17 277.966Z" fill="#F7BE4A"/>
<path fill-rule="evenodd" clip-rule="evenodd" d="M282.909 259.471C282.356 259.613 281.574 259.586 281.484 260.258C281.374 261.107 282.467 261.123 282.894 261.54C283.611 262.244 283.341 263.628 283.556 264.814C283.614 265.123 283.653 265.539 284.147 265.61C284.779 265.701 284.909 265.083 285.08 264.37C285.384 263.089 285.906 262.003 286.775 261.606C287.298 261.366 287.895 261.581 287.991 260.863C288.085 260.153 287.414 260.202 286.885 259.881C286.042 259.37 285.894 258.189 285.776 257.028C285.751 256.769 285.779 256.426 285.718 256.288C285.495 255.788 284.651 255.653 284.319 256.211C284.133 256.52 284.206 256.982 284.131 257.39C283.953 258.332 283.574 258.986 282.909 259.471Z" fill="#F7BE4A"/>
<path fill-rule="evenodd" clip-rule="evenodd" d="M56.965 136.594C56.16 136.807 55.0228 136.764 54.8923 137.745C54.7323 138.979 56.3225 139.001 56.9422 139.609C57.9853 140.632 57.5951 142.646 57.9071 144.37C57.9927 144.818 58.0468 145.423 58.7638 145.528C59.6863 145.655 59.8758 144.76 60.1232 143.724C60.5657 141.863 61.3257 140.28 62.5879 139.702C63.3485 139.353 64.2168 139.668 64.3565 138.622C64.495 137.59 63.5177 137.662 62.7491 137.193C61.5232 136.45 61.3066 134.732 61.1355 133.045C61.0986 132.668 61.1404 132.168 61.0518 131.965C60.7269 131.239 59.4992 131.045 59.0155 131.854C58.7453 132.307 58.853 132.975 58.741 133.573C58.4831 134.941 57.9317 135.892 56.965 136.594Z" fill="#F7BE4A"/>
<path fill-rule="evenodd" clip-rule="evenodd" d="M224.899 39.597C224.294 41.2847 225.083 42.2966 224.276 44.1261C223.823 45.1582 221.677 45.8003 221.68 46.9171C221.685 48.4092 224.17 48.2203 224.968 49.2543C225.674 50.1613 225.248 52.4372 226.78 52.5028C228.337 52.5635 227.947 49.5548 228.778 48.1154C229.309 47.179 231.012 46.8895 230.886 45.5728C230.798 44.6866 228.953 44.456 228.29 43.9323C226.908 42.8271 227.276 40.715 226.452 39.4535C225.778 39.134 225.46 39.3836 224.899 39.597Z" fill="#F7BE4A"/>
<path fill-rule="evenodd" clip-rule="evenodd" d="M58.2382 253.139C57.6333 254.827 58.4222 255.837 57.6142 257.668C57.1631 258.698 55.0166 259.338 55.0184 260.459C55.024 261.95 57.509 261.762 58.3084 262.794C59.0148 263.701 58.5884 265.976 60.1201 266.042C61.6771 266.103 61.2869 263.093 62.1183 261.655C62.6475 260.716 64.351 260.43 64.2254 259.114C64.1362 258.228 62.2906 257.997 61.6297 257.47C60.2481 256.368 60.6161 254.256 59.7921 252.992C59.117 252.676 58.7995 252.923 58.2382 253.139Z" fill="#F7BE4A"/>
<path fill-rule="evenodd" clip-rule="evenodd" d="M179.98 9.75852C178.625 14.6764 178.063 19.6372 177.5 24.5864C176.917 29.7011 176.398 34.8398 175.847 40.03C174.751 50.3588 174.586 60.9139 173.987 72.565C173.449 83.0177 172.246 93.4711 171.713 104.687C171.056 118.558 171.207 136.154 160.555 140.106C157.815 141.122 152.501 141.214 148.571 141.547C140.459 142.233 133.144 144.215 126.049 145.871C122.195 146.771 118.159 147.8 114.064 147.312C106.73 146.432 101.381 140.387 100.633 133.721C100.407 131.707 100.612 128.928 101.046 127.133C102.187 122.419 104.812 118.692 107.245 115.395C110.841 110.525 115.998 106.276 116.13 97.4795C116.174 94.5462 115.675 91.4816 115.097 88.6256C114.541 85.8756 113.618 83.1643 113.651 80.388C113.781 69.5207 122.489 65.4442 125.842 57.5329C129.407 49.1181 125.084 36.8458 125.429 27.6736C126.072 10.5601 135.553 1.03586 151.878 0.0803728C158.269 -0.294954 164.085 0.675253 168.615 2.34337C173.079 3.99125 177.204 6.43455 179.98 9.75852Z" fill="#E34E6A"/>
<path fill-rule="evenodd" clip-rule="evenodd" d="M17.5665 121.166C16.0372 119.925 11.7134 114.816 8.9084 113.208C7.82099 112.581 6.35019 112.158 5.59386 112.978C3.99813 114.706 7.78222 118.421 8.9121 119.9C10.8808 122.458 12.0931 124.363 13.8353 126.492C11.8882 125.311 7.72499 120.33 4.38768 118.173C2.99318 117.273 1.21775 116.498 0.289727 117.593C-0.891226 118.98 1.86146 122.39 2.75563 123.561C7.03267 129.218 11.7632 135.564 14.2427 140.73C17.0963 146.664 18.7554 152.186 19.5437 158.596C19.7351 160.145 19.4914 163.542 20.665 164.572C21.2158 165.051 23.1481 165.281 23.8792 165.252C26.3919 165.155 29.2615 164.149 32.8905 163.051C34.2758 162.634 35.6728 162.28 37.3448 161.51C38.7024 160.892 41.1264 160.092 41.6052 159.545C42.3634 158.707 42.4692 155.999 42.516 154.387C42.6471 149.695 42.3043 143.107 42.3074 139.23C42.3 135.865 42.3043 132.338 42.3517 129.1C42.4028 126.04 42.6219 115.986 38.6796 115.452C35.4395 115.008 36.3977 124.772 35.5706 127.185C33.9995 123.075 30.3976 116.851 25.2928 111.517C23.9482 110.121 21.2816 107.042 19.8151 107.963C17.8059 109.223 19.8416 111.755 20.5382 113.089C21.5118 114.946 22.0484 116.413 23.1678 117.858C20.9844 116.259 17.2114 111.572 14.3769 110.056C13.4507 109.568 12.1429 109.319 11.5226 109.933C10.1035 111.355 12.402 113.597 13.6273 115.35C15.2969 117.743 16.2169 119.407 17.404 121.032C17.4532 121.075 17.5086 121.121 17.5665 121.166Z" fill="#FFCBD5"/>
<path fill-rule="evenodd" clip-rule="evenodd" d="M12.9805 129.988C12.8297 129.314 13.0482 127.813 13.3676 126.898C15.2403 121.545 22.1291 117.168 26.2442 117.125C22.7235 118.48 16.9819 121.649 12.9805 129.988Z" fill="#FF8D9D"/>
<path fill-rule="evenodd" clip-rule="evenodd" d="M35.8876 126.906C31.0757 130.754 28.8025 135.021 27.5409 139.455C25.6221 135.11 31.4025 127.295 35.8876 126.906Z" fill="#FF8D9D"/>
<path fill-rule="evenodd" clip-rule="evenodd" d="M108.872 121.283C101.587 125.125 57.8746 193.765 56.0105 195.502C52.2092 181.614 45.5814 155.076 45.5814 155.076C39.7277 157.422 19.2601 160.904 18.3179 161.083C20.254 174.023 26.4209 218.033 31.629 231.734C33.306 236.151 35.7011 241.195 38.9006 243.626C43.8675 247.398 49.2953 244.898 53.3606 243.234C67.7831 237.325 100.539 216.137 118.62 171.234C113.583 160.457 114.253 131.904 108.872 121.283Z" fill="#BAD6E9"/>
<g opacity="0.41">
<path opacity="0.41" fill-rule="evenodd" clip-rule="evenodd" d="M108.872 121.283C101.587 125.125 57.8746 193.765 56.0105 195.502C52.2092 181.614 45.5814 155.076 45.5814 155.076C39.7277 157.422 19.2601 160.904 18.3179 161.083C20.254 174.023 26.4209 218.033 31.629 231.734C33.306 236.151 35.7011 241.195 38.9006 243.626C43.8675 247.398 49.2953 244.898 53.3606 243.234C67.7831 237.325 100.539 216.137 118.62 171.234C113.583 160.457 114.253 131.904 108.872 121.283Z" fill="white"/>
</g>
<g opacity="0.25">
<path opacity="0.25" d="M62.2618 207.989C63.4674 207.645 63.0575 204.319 63.0372 202.477C62.9892 197.914 62.1652 192.221 61.1707 188.017C58.5134 192.002 56.6875 194.697 56.1287 195.37C57.0937 198.344 58.2069 201.273 59.3836 204.128C59.9565 205.52 60.9479 208.358 62.2618 207.989Z" fill="#1A4E72"/>
</g>
<path d="M6.41728 151.722L12.9362 155.367C13.2648 155.553 13.6833 155.434 13.8642 155.109C14.0507 154.781 13.9313 154.368 13.6039 154.183L12.0408 153.307C12.1067 153.234 12.1627 153.157 12.2125 153.074L16.0471 146.266C16.3898 145.667 16.188 144.909 15.5978 144.578L14.159 143.772C13.5713 143.439 12.8168 143.664 12.479 144.264L8.63765 151.073C8.58841 151.16 8.55703 151.247 8.52995 151.338L7.09115 150.532C6.76006 150.347 6.34282 150.466 6.15758 150.794C5.97173 151.119 6.0905 151.535 6.41728 151.722Z" fill="#1A4E72"/>
<path d="M8.84995 142.113L14.4107 145.224L19.9672 148.339C20.9758 148.904 21.974 147.987 21.4423 146.96C19.2988 142.82 18.4003 141.659 16.8945 140.816C15.3873 139.974 13.9264 139.817 9.26596 140.142C8.10962 140.221 7.8407 141.55 8.84995 142.113Z" fill="#1A4E72"/>
<path d="M36.2131 100.559C36.5442 99.9743 37.2901 99.7658 37.8747 100.094L40.7548 101.708C41.3456 102.039 41.5536 102.779 41.2231 103.369L38.7775 107.707C38.4464 108.292 37.6993 108.503 37.1135 108.169L34.2315 106.557C33.6414 106.229 33.4327 105.486 33.762 104.9L36.2131 100.559Z" fill="#1A4E72"/>
<path d="M39.9886 97.4966C40.2249 97.2703 40.5948 97.2127 40.8982 97.3783L41.6354 97.7941C41.945 97.9701 42.089 98.3295 41.9991 98.6576C41.9874 98.7195 40.9277 101.848 40.9277 101.848C40.7228 102.216 40.2508 102.351 39.8877 102.141L38.0821 101.132C37.7166 100.924 37.5812 100.459 37.7904 100.093C37.7904 100.093 39.9369 97.5457 39.9886 97.4966Z" fill="#1A4E72"/>
<path d="M40.8794 97.6316L41.4382 97.9376L48.5036 84.9747L48.5029 84.976C48.5232 84.9226 48.5072 84.8637 48.4592 84.8367C48.4063 84.8055 48.3509 84.8275 48.3171 84.868H48.3134L40.8794 97.6316Z" fill="#1A4E72"/>
<path d="M40.6883 97.2648C40.7628 97.1361 40.9247 97.0888 41.0582 97.163L41.7388 97.5463C41.873 97.6205 41.9191 97.7818 41.8435 97.9118C41.7727 98.0437 41.6084 98.0866 41.4822 98.0155L40.7899 97.6353C40.6607 97.5561 40.6139 97.3961 40.6883 97.2648Z" fill="#1A4E72"/>
<path d="M33.5841 106.421L32.5923 108.181L36.7035 110.482L37.6953 108.722L33.5841 106.421Z" fill="#1A4E72"/>
<path d="M31.9318 105.082C32.1133 104.755 32.5324 104.639 32.8598 104.824L39.3732 108.472C39.7006 108.657 39.8243 109.072 39.6372 109.401C39.4508 109.725 39.0391 109.842 38.7049 109.66L32.1896 106.01C31.8616 105.827 31.7447 105.413 31.9318 105.082Z" fill="#1A4E72"/>
<path d="M33.2136 120.715L20.0157 144.309L12.602 139.985L25.7045 116.562L31.8425 113.744L33.2136 120.715Z" fill="#BAD6E9"/>
<path d="M33.2253 120.733L34.4826 118.475L34.2986 117.916L34.874 117.772L36.5694 114.728L36.4051 114.207L36.9577 114.031L38.0039 112.153C38.3848 111.471 38.1454 110.598 37.4531 110.206L32.4616 107.414C31.7736 107.028 30.8966 107.277 30.5138 107.965L25.7051 116.563L33.2253 120.733Z" fill="#E34E6A"/>
<path d="M33.8875 112.775C33.7823 112.964 33.8488 113.208 34.0383 113.313L36.5682 114.729L36.9584 114.03L34.426 112.621C34.2408 112.516 33.9928 112.583 33.8875 112.775Z" fill="#1A4E72"/>
<path d="M31.7847 116.506C31.6739 116.696 31.7441 116.935 31.9367 117.042L34.4826 118.474L34.8746 117.771L32.3281 116.349C32.1287 116.245 31.8942 116.315 31.7847 116.506Z" fill="#1A4E72"/>
<path d="M29.6806 120.235C29.5736 120.426 29.64 120.669 29.8308 120.771L32.3835 122.203L32.77 121.506L30.2247 120.079C30.0327 119.978 29.7896 120.042 29.6806 120.235Z" fill="#1A4E72"/>
<path d="M27.5779 123.961C27.4726 124.157 27.536 124.399 27.728 124.506L30.2918 125.941L30.6801 125.246L28.1243 123.816C27.9299 123.701 27.6849 123.771 27.5779 123.961Z" fill="#1A4E72"/>
<path d="M25.4738 127.696C25.3649 127.886 25.4332 128.125 25.6264 128.236L28.1994 129.681L28.5877 128.983L26.0178 127.541C25.8264 127.439 25.5809 127.506 25.4738 127.696Z" fill="#1A4E72"/>
<path d="M23.3716 131.423C23.2626 131.616 23.3273 131.861 23.5217 131.966L26.1101 133.417L26.4959 132.723L23.9162 131.277C23.7199 131.168 23.4786 131.234 23.3716 131.423Z" fill="#1A4E72"/>
<path d="M21.2712 135.158C21.1605 135.343 21.2239 135.59 21.4183 135.7L24.019 137.155L24.4073 136.459L21.8109 135.005C21.6202 134.901 21.374 134.963 21.2712 135.158Z" fill="#1A4E72"/>
<path fill-rule="evenodd" clip-rule="evenodd" d="M15.3412 140.331C13.3559 140.472 15.3941 136.042 16.7757 136.583C18.3967 137.216 16.5043 139.81 15.5289 140.304C15.4667 140.332 15.4101 140.326 15.3412 140.331Z" fill="white"/>
<path fill-rule="evenodd" clip-rule="evenodd" d="M18.2114 136.184C16.6009 136.074 18.108 132.252 19.5179 133.141C20.5863 133.82 19.3241 136.257 18.2114 136.184Z" fill="white"/>
<path fill-rule="evenodd" clip-rule="evenodd" d="M30.5822 112.332C28.9717 112.221 30.4812 108.396 31.8874 109.29C32.9552 109.968 31.6936 112.405 30.5822 112.332Z" fill="white"/>
<path fill-rule="evenodd" clip-rule="evenodd" d="M92.0956 155.054C94.1603 153.909 96.1228 150.454 97.8465 146.947C98.5819 145.445 99.7364 142.996 98.4638 142.186C96.937 141.212 95.1806 143.792 94.5578 144.712C92.5824 147.635 90.7922 151.566 90.4537 153.931C90.6168 154.465 91.4531 154.993 92.0956 155.054Z" fill="white"/>
<path fill-rule="evenodd" clip-rule="evenodd" d="M101.151 148.815C103.911 151.427 108.544 144.531 105.738 143.079C104.524 142.451 101.031 144.952 100.506 146.935C100.322 147.649 100.669 148.36 101.151 148.815Z" fill="white"/>
<path fill-rule="evenodd" clip-rule="evenodd" d="M40.1497 218.53C36.5207 220.192 36.8019 209.888 40.2814 211.713C42.095 212.662 41.0956 216.843 40.1497 218.53Z" fill="white"/>
<path fill-rule="evenodd" clip-rule="evenodd" d="M36.1755 224.225C36.5145 223.456 37.6303 222.06 39.13 222.857C41.0907 223.895 41.2697 228.334 41.6771 230.081C42.1731 232.203 44.0624 235.982 42.2501 237.648C39.6666 240.024 37.762 233.971 37.1939 231.862C36.8924 230.741 36.7072 229.613 36.4985 228.654C36.1435 227.007 35.52 225.709 36.1755 224.225Z" fill="white"/>
<path fill-rule="evenodd" clip-rule="evenodd" d="M202.187 313.999H163.611V98.0149L194.949 91.0407L202.187 313.999Z" fill="#1A4E72"/>
<path d="M249.706 269.57C246.596 246.24 240.408 224.087 240.408 197.5C240.408 175.872 246.434 157.866 248.881 137.988C249.698 131.355 251.332 122.612 248.467 117.191C246.647 113.745 241.976 111.05 237.722 108.954C224.386 102.384 210.58 97.791 194.949 93.9231C194.775 93.8844 194.755 94.0028 194.743 94.1304C193.435 112.97 192.736 131.562 191.231 149.933C189.734 168.178 187.97 186.218 186.478 204.501C185.005 222.558 183.288 241.506 183.584 260.923C183.852 278.41 183.874 296.236 183.338 313.999H253.75C252.896 298.718 251.649 284.128 249.706 269.57Z" fill="#BAD6E9"/>
<path fill-rule="evenodd" clip-rule="evenodd" d="M194.949 91.0407C193.965 91.2553 194.196 92.6781 194.124 93.3067C193.406 99.5695 193.196 106.413 192.677 113.074C191.085 133.575 189.504 157.779 187.718 178.183C187.589 179.646 186.816 181.645 188.131 182.918C190.451 182.906 191.49 180.467 192.471 178.798C195.556 173.548 199.337 164.795 202.156 158.755C203.81 155.214 204.005 150.681 205.902 146.432C207.455 142.953 210.674 137.657 210.241 133.868C210.019 131.925 208.4 130.026 207.348 128.311C206.255 126.526 204.929 124.979 204.455 122.957C206.887 121.962 211.95 124.019 213.546 121.309C214.37 119.914 213.116 116.679 212.514 114.514C211.283 110.095 210.17 105.187 208.794 100.924C208.041 98.5895 207.222 95.4642 205.489 94.1297C203.153 92.3291 198.021 91.5865 194.949 91.0407Z" fill="#BAD6E9"/>
<g opacity="0.41">
<path opacity="0.41" fill-rule="evenodd" clip-rule="evenodd" d="M194.949 91.0407C193.965 91.2553 194.196 92.6781 194.124 93.3067C193.406 99.5695 193.196 106.413 192.677 113.074C191.085 133.575 189.504 157.779 187.718 178.183C187.589 179.646 186.816 181.645 188.131 182.918C190.451 182.906 191.49 180.467 192.471 178.798C195.556 173.548 199.337 164.795 202.156 158.755C203.81 155.214 204.005 150.681 205.902 146.432C207.455 142.953 210.674 137.657 210.241 133.868C210.019 131.925 208.4 130.026 207.348 128.311C206.255 126.526 204.929 124.979 204.455 122.957C206.887 121.962 211.95 124.019 213.546 121.309C214.37 119.914 213.116 116.679 212.514 114.514C211.283 110.095 210.17 105.187 208.794 100.924C208.041 98.5895 207.222 95.4642 205.489 94.1297C203.153 92.3291 198.021 91.5865 194.949 91.0407Z" fill="white"/>
</g>
<path fill-rule="evenodd" clip-rule="evenodd" d="M232.348 258.872C220.54 258.944 208.897 259.178 198.741 260.896C199.834 269.716 198.919 278.925 202.576 285.844C204.955 290.348 210.422 294.031 214.981 297.305C216.657 298.508 218.631 299.931 220.393 299.779C222.639 299.582 225.915 294.784 227.159 293.034C229.338 289.975 230.625 287.344 231.671 284.27C234.146 276.984 232.648 267.596 232.572 259.546C232.592 259.227 232.609 258.91 232.348 258.872Z" fill="#BAD6E9"/>
<g opacity="0.25">
<path opacity="0.25" fill-rule="evenodd" clip-rule="evenodd" d="M232.348 258.872C220.54 258.944 208.897 259.178 198.741 260.896C199.834 269.716 198.919 278.925 202.576 285.844C204.955 290.348 210.422 294.031 214.981 297.305C216.657 298.508 218.631 299.931 220.393 299.779C222.639 299.582 225.915 294.784 227.159 293.034C229.338 289.975 230.625 287.344 231.671 284.27C234.146 276.984 232.648 267.596 232.572 259.546C232.592 259.227 232.609 258.91 232.348 258.872Z" fill="#1A4E72"/>
</g>
<path d="M173.755 265.015C174.052 245.599 172.335 226.649 170.862 208.592C169.37 190.308 167.605 172.269 166.109 154.024C164.603 135.655 163.906 117.06 162.596 98.2203C162.584 98.0946 162.566 97.9762 162.389 98.0149C146.759 101.884 132.954 106.476 119.616 113.046C115.364 115.142 110.693 117.838 108.872 121.283C106.007 126.706 107.643 135.444 108.459 142.081C110.907 161.958 116.931 179.963 116.931 201.593C116.931 228.183 110.744 250.334 107.632 273.666C105.865 286.915 104.676 300.2 103.833 314H173.888C173.47 297.592 173.507 281.158 173.755 265.015Z" fill="#BAD6E9"/>
<path fill-rule="evenodd" clip-rule="evenodd" d="M162.39 95.1306C163.375 95.3452 163.144 96.7711 163.216 97.3979C163.934 103.661 164.146 110.506 164.663 117.164C166.256 137.668 167.836 158.331 169.622 178.735C169.749 180.199 170.525 182.197 169.208 183.471C166.888 183.459 165.85 181.023 164.869 179.353C161.784 174.101 159.425 168.302 156.604 162.26C154.95 158.721 153.335 154.774 151.439 150.524C149.886 147.043 146.666 141.749 147.1 137.962C147.322 136.015 148.941 134.118 149.991 132.402C151.086 130.615 152.412 129.071 152.884 127.047C150.452 126.052 145.39 128.11 143.792 125.4C142.97 124.005 144.223 120.77 144.826 118.604C146.057 114.185 147.169 109.279 148.545 105.014C149.299 102.679 150.118 99.5548 151.851 98.2191C154.188 96.4185 159.318 95.6789 162.39 95.1306Z" fill="#BAD6E9"/>
<g opacity="0.41">
<path opacity="0.41" fill-rule="evenodd" clip-rule="evenodd" d="M162.39 95.1306C163.375 95.3452 163.144 96.7711 163.216 97.3979C163.934 103.661 164.146 110.506 164.663 117.164C166.256 137.668 167.836 158.331 169.622 178.735C169.749 180.199 170.525 182.197 169.208 183.471C166.888 183.459 165.85 181.023 164.869 179.353C161.784 174.101 159.425 168.302 156.604 162.26C154.95 158.721 153.335 154.774 151.439 150.524C149.886 147.043 146.666 141.749 147.1 137.962C147.322 136.015 148.941 134.118 149.991 132.402C151.086 130.615 152.412 129.071 152.884 127.047C150.452 126.052 145.39 128.11 143.792 125.4C142.97 124.005 144.223 120.77 144.826 118.604C146.057 114.185 147.169 109.279 148.545 105.014C149.299 102.679 150.118 99.5548 151.851 98.2191C154.188 96.4185 159.318 95.6789 162.39 95.1306Z" fill="white"/>
</g>
<path d="M132.849 280.927C132.862 282.588 134.248 287.993 135.91 287.981C137.571 287.971 138.88 282.541 138.872 280.885C138.86 279.229 137.503 277.896 135.84 277.904C134.176 277.916 132.84 279.274 132.849 280.927Z" fill="#E34E6A"/>
<path d="M135.92 290.587H135.939C136.471 290.581 136.896 290.151 136.894 289.622L136.877 287.336L134.935 287.351L134.95 289.635C134.954 290.166 135.387 290.587 135.92 290.587Z" fill="#1A4E72"/>
<path d="M135.11 233.749C135.916 233.735 136.555 233.083 136.548 232.279L136.513 229.427C136.506 228.624 135.849 227.982 135.043 227.994C134.239 228.001 133.596 228.657 133.604 229.456L133.636 232.314C133.646 233.116 134.305 233.758 135.11 233.749Z" fill="#E34E6A"/>
<path d="M132.307 231.199L138.264 231.241L138.445 247.348L132.424 247.391L132.307 231.199Z" fill="#1A4E72"/>
<path d="M132.434 249.139L138.458 249.095L138.872 280.883L132.849 280.926L132.434 249.139Z" fill="#1A4E72"/>
<path d="M138.439 247.361L132.416 247.402L132.429 249.148L138.452 249.108L138.439 247.361Z" fill="#E34E6A"/>
<path d="M138.324 230.969L130.218 231.028L130.225 231.902L138.331 231.843L138.324 230.969Z" fill="#E34E6A"/>
<path d="M131.452 231.022L130.199 231.033L130.363 248.337L131.616 248.325L131.452 231.022Z" fill="#E34E6A"/>
<path fill-rule="evenodd" clip-rule="evenodd" d="M134.475 233.968C133.233 233.124 132.87 236.781 133.977 236.956C135.275 237.157 135.03 234.75 134.585 234.057C134.557 234.014 134.516 233.998 134.475 233.968Z" fill="white"/>
<path fill-rule="evenodd" clip-rule="evenodd" d="M134.678 238.397C133.587 237.857 133.11 240.919 134.367 240.873C135.321 240.837 135.43 238.766 134.678 238.397Z" fill="white"/>
<path fill-rule="evenodd" clip-rule="evenodd" d="M138.397 280.888C138.501 280.043 138.476 278.695 137.857 278.591C137.061 278.459 137.11 279.365 137.084 280.059C137.058 280.746 137.051 281.602 137.694 281.662C138.398 281.73 138.357 281.221 138.397 280.888Z" fill="white"/>
<path fill-rule="evenodd" clip-rule="evenodd" d="M136.97 276.738C137.095 276.114 136.928 275.47 136.373 275.447C135.432 275.411 135.336 277.525 136.267 277.512C136.62 277.507 136.865 277.254 136.97 276.738Z" fill="white"/>
<path fill-rule="evenodd" clip-rule="evenodd" d="M122.429 258.872C134.236 258.944 145.879 259.178 156.034 260.896C154.94 269.716 155.855 278.925 152.199 285.844C149.821 290.348 144.354 294.031 139.795 297.305C138.119 298.508 136.145 299.931 134.382 299.779C132.136 299.582 128.86 294.784 127.616 293.034C125.438 289.975 124.15 287.344 123.106 284.27C120.629 276.984 122.128 267.596 122.204 259.546C122.184 259.227 122.167 258.91 122.429 258.872Z" fill="#BAD6E9"/>
<g opacity="0.25">
<path opacity="0.25" fill-rule="evenodd" clip-rule="evenodd" d="M122.429 258.872C134.236 258.944 145.879 259.178 156.034 260.896C154.94 269.716 155.855 278.925 152.199 285.844C149.821 290.348 144.354 294.031 139.795 297.305C138.119 298.508 136.145 299.931 134.382 299.779C132.136 299.582 128.86 294.784 127.616 293.034C125.438 289.975 124.15 287.344 123.106 284.27C120.629 276.984 122.128 267.596 122.204 259.546C122.184 259.227 122.167 258.91 122.429 258.872Z" fill="#1A4E72"/>
</g>
<path fill-rule="evenodd" clip-rule="evenodd" d="M153.879 201.436C152.023 202.097 145.4 203.143 142.566 204.704C141.467 205.31 140.345 206.346 140.658 207.415C141.316 209.67 146.465 208.363 148.319 208.164C151.534 207.806 153.796 207.76 156.529 207.373C154.505 208.423 148.074 209.399 144.497 211.131C143.005 211.856 141.419 212.967 141.877 214.326C142.461 216.051 146.812 215.464 148.284 215.31C155.351 214.585 163.247 213.831 168.968 214.386C175.542 215.023 181.142 216.461 187.053 219.102C188.483 219.741 191.276 221.704 192.765 221.235C193.463 221.016 194.658 219.485 195.013 218.847C196.229 216.655 196.848 213.686 197.781 210.022C198.141 208.623 198.558 207.249 198.761 205.425C198.931 203.946 199.499 201.464 199.276 200.775C198.947 199.693 196.677 198.204 195.314 197.331C191.354 194.793 185.519 191.68 182.19 189.672C179.295 187.941 176.268 186.112 173.513 184.398C170.911 182.771 162.387 177.385 159.89 180.472C157.835 183.007 166.717 187.238 168.362 189.192C164.018 188.405 156.812 188.26 149.59 189.856C147.697 190.281 143.672 190.965 143.706 192.693C143.75 195.058 146.976 194.63 148.484 194.725C150.582 194.855 152.12 195.157 153.939 194.95C151.439 195.984 145.46 196.778 142.693 198.416C141.793 198.95 140.904 199.938 141.111 200.786C141.599 202.731 144.712 201.931 146.852 201.791C149.772 201.602 151.676 201.68 153.687 201.507C153.743 201.485 153.812 201.46 153.879 201.436Z" fill="#FFCBD5"/>
<path fill-rule="evenodd" clip-rule="evenodd" d="M216.499 133.689C219.421 141.373 236.885 213.263 237.705 214.35C224.532 208.45 189.985 190.106 189.985 190.106C188.082 196.1 177.876 220.727 177.414 221.564C188.672 228.297 239.059 258.615 252.986 263.317C257.473 264.832 262.904 266.195 266.821 265.28C272.9 263.854 274.413 258.09 275.705 253.902C280.295 239.051 277.932 168.878 249.525 119.058C234.593 92.8688 206.851 108.321 216.499 133.689Z" fill="#BAD6E9"/>
<g opacity="0.41">
<path opacity="0.41" fill-rule="evenodd" clip-rule="evenodd" d="M216.499 133.689C219.421 141.373 236.885 213.263 237.705 214.35C224.532 208.45 189.985 190.106 189.985 190.106C188.082 196.1 177.876 220.727 177.414 221.564C188.672 228.297 239.059 258.615 252.986 263.317C257.473 264.832 262.904 266.195 266.821 265.28C272.9 263.854 274.413 258.09 275.705 253.902C280.295 239.051 277.932 168.878 249.525 119.058C234.593 92.8688 206.851 108.321 216.499 133.689Z" fill="white"/>
</g>
<g opacity="0.25">
<path opacity="0.25" d="M252.828 218.225C252.521 219.428 249.452 218.43 248.011 217.986C244.54 216.922 241.038 215.734 237.643 214.321C237.654 214.327 237.664 214.329 237.675 214.331C237.643 214.321 235.541 206.574 235.541 206.574C239.486 208.469 245.37 211.17 249.053 214.125C250.492 215.281 253.062 217.32 252.828 218.225Z" fill="#1A4E72"/>
</g>
<path fill-rule="evenodd" clip-rule="evenodd" d="M245.365 126.053C248.964 125.939 244.582 117.735 242.509 120.599C241.428 122.096 243.92 125.068 245.365 126.053Z" fill="white"/>
<path fill-rule="evenodd" clip-rule="evenodd" d="M250.87 129.06C250.286 128.573 248.822 127.891 247.933 129.135C246.769 130.759 248.414 134.415 248.791 135.988C249.248 137.899 249.246 141.706 251.378 142.324C254.423 143.209 253.519 137.558 253.127 135.628C252.919 134.604 252.614 133.62 252.395 132.76C252.017 131.29 251.997 129.995 250.87 129.06Z" fill="white"/>
<path fill-rule="evenodd" clip-rule="evenodd" d="M237.751 246.962C239.794 247.005 242.691 248.862 245.426 250.859C246.599 251.71 248.473 253.122 247.823 254.253C247.047 255.609 244.664 254.343 243.813 253.887C241.119 252.443 238.162 250.151 236.944 248.474C236.855 248.002 237.284 247.258 237.751 246.962Z" fill="white"/>
<path fill-rule="evenodd" clip-rule="evenodd" d="M253.042 249.919C254.102 246.812 260.435 250.231 258.876 252.468C258.198 253.438 254.515 252.924 253.311 251.614C252.879 251.144 252.86 250.459 253.042 249.919Z" fill="white"/>
<path fill-rule="evenodd" clip-rule="evenodd" d="M258.549 256.659C258.808 255.521 260.478 255.232 262.138 255.569C263.471 255.842 265.9 256.974 265.119 258.32C264.774 258.924 263.465 259.332 262.078 259.086C260.452 258.801 258.218 258.12 258.549 256.659Z" fill="white"/>
<path fill-rule="evenodd" clip-rule="evenodd" d="M217.439 137.636C232.623 140.378 227.795 163.389 227.716 179.631C228.425 180.678 230.398 180.088 230.286 181.875C230.142 184.145 223.567 183.636 221.794 182.37C221.452 180.329 223.145 180.653 223.609 179.548C223.375 168.831 226.223 151.761 221.954 144.352C220.419 141.69 216.848 140.127 213.022 141.626C203.482 145.369 204.768 163.701 202.829 176.375C203.581 177.607 205.608 176.27 205.662 178.188C205.714 180.057 198.767 180.519 198.567 178.332C198.452 177.084 199.587 176.853 201.449 176.501C201.438 161.772 201.21 141.769 213.282 138.232C213.537 125.574 211.71 115.1 205.549 107.812C194.768 95.0607 165.297 91.2412 150.987 101.171C146.272 104.444 143.101 109.023 141.054 114.536C138.859 120.451 138.71 127.3 138.102 135.264C136.905 150.946 137.441 147.227 135.137 161.677C136.779 163.711 138.992 165.114 137.798 168.709C136.954 171.253 133.3 173.223 130.411 172.705C127.062 172.099 125.294 167.996 126.68 164.678C127.486 162.753 129.517 162.149 131.292 161.158C132.76 141.231 131.499 146.333 132.765 127.344C133.529 115.896 137.12 104.936 143.121 99.4358C150.286 92.8701 161.067 91.1186 174.815 91.3645C184.777 91.5448 194.656 93.8096 201.05 97.9094C207.21 101.857 212.366 107.759 214.606 114.878C216.616 121.258 216.914 129.45 217.439 137.636Z" fill="#1A4E72"/>
<path fill-rule="evenodd" clip-rule="evenodd" d="M140.366 168.36C140.007 173.048 135.902 176.562 131.198 176.205C126.492 175.847 122.969 171.759 123.327 167.07C123.684 162.38 127.789 158.867 132.494 159.226C137.2 159.583 140.723 163.671 140.366 168.36Z" fill="#1A4E72"/>
<path fill-rule="evenodd" clip-rule="evenodd" d="M131.987 163.146C135.335 162.951 137.873 166.138 136.185 169.833C134.416 173.709 127.828 172.636 127.131 169.481C126.217 165.352 129.244 163.306 131.987 163.146Z" fill="white"/>
<path d="M189.321 62.1963C189.321 62.1963 194.639 56.6124 196.501 46.7717C195.078 36.1001 196.046 17.4999 188.064 12.4974C176.32 5.1387 158.107 8.23575 149.677 16.1624C142.441 22.9753 135.566 38.4232 134.566 54.0011C133.556 69.7599 139.351 83.0981 158.379 77.9705C159.638 84.3068 161.566 94.7688 162.108 97.0538C163.686 103.751 170.015 114.126 195.265 92.3426C195.225 93.0804 189.304 66.1826 189.321 62.1963Z" fill="#FFCBD5"/>
<path fill-rule="evenodd" clip-rule="evenodd" d="M158.379 77.9711C164.251 76.7402 171.364 69.8715 171.364 69.8715C171.364 69.8715 171.191 81.598 160.353 88.1951L158.379 77.9711Z" fill="#FF8D9D"/>
<path fill-rule="evenodd" clip-rule="evenodd" d="M167.963 44.5517C166.397 42.4414 164.732 41.3596 163.187 40.8659L160.763 42.5015L160.57 45.0448C160.932 45.1932 161.331 45.3465 161.753 45.4679C164.691 46.3118 167.963 44.5517 167.963 44.5517Z" fill="white"/>
<path fill-rule="evenodd" clip-rule="evenodd" d="M156.566 41.8097C156.566 41.8097 159.561 39.7092 163.196 40.8573C163.27 41.1547 163.452 41.7686 163.44 42.0894C163.333 43.5625 162.136 44.7191 160.58 45.0533C157.555 43.8139 156.566 41.8097 156.566 41.8097Z" fill="#1A4E72"/>
<path fill-rule="evenodd" clip-rule="evenodd" d="M147.275 40.937C145.804 38.9586 144.271 37.9632 142.821 37.5155L140.627 39.2217L140.422 41.4043C140.749 41.5374 141.135 41.6852 141.513 41.795C144.234 42.5843 147.275 40.937 147.275 40.937Z" fill="white"/>
<path fill-rule="evenodd" clip-rule="evenodd" d="M136.705 38.3974C136.705 38.3974 139.478 36.4552 142.846 37.5112C142.922 37.7983 143.093 38.36 143.077 38.6618C142.981 40.0183 141.869 41.102 140.422 41.4129C137.627 40.2551 136.705 38.3974 136.705 38.3974Z" fill="#1A4E72"/>
<path d="M159.436 51.0659C157.72 53.2241 158.095 56.3702 160.258 58.0904C162.437 59.7898 165.587 59.4274 167.307 57.2594C169.02 55.0909 168.655 51.9466 166.479 50.2411C164.309 48.5349 161.158 48.8943 159.436 51.0659Z" fill="#FF8D9D"/>
<path d="M139.184 51.8289C138.071 53.2284 136.254 53.8864 134.586 53.7061C134.597 53.4988 135.059 47.0471 136.023 43.8213C136.871 43.9335 137.633 44.234 138.348 44.8007C140.528 46.5191 140.896 49.6591 139.184 51.8289Z" fill="#FF8D9D"/>
<path fill-rule="evenodd" clip-rule="evenodd" d="M170.741 39.9637L169.245 41.2124C165.388 36.6465 159.039 37.0145 156.731 37.8755L156.048 36.0633C159.637 34.7098 166.569 35.0336 170.741 39.9637Z" fill="#E34E6A"/>
<path fill-rule="evenodd" clip-rule="evenodd" d="M149.909 36.6343L148.423 37.8933C144.861 33.6807 139.002 34.018 136.883 34.8208L136.194 32.9957C139.537 31.7532 146.008 32.0414 149.909 36.6343Z" fill="#E34E6A"/>
<path fill-rule="evenodd" clip-rule="evenodd" d="M149.919 41.9115C148.813 41.4828 143.855 51.4934 143.929 52.6586C144.041 54.12 148.833 55.7097 149.304 55.2117C150.636 53.7901 151.58 42.5536 149.919 41.9115Z" fill="#FF8D9D"/>
<path d="M140.123 62.3233C145.256 66.1722 151.668 63.9178 155.444 60.2142L153.862 58.6227C150.759 61.6818 145.541 63.5854 141.461 60.5429L140.123 62.3233Z" fill="#FF8D9D"/>
<path fill-rule="evenodd" clip-rule="evenodd" d="M163.139 2.76776C161.509 2.77083 160.018 2.80456 158.829 2.85791C145.611 3.47181 136.899 7.87331 133 17.2736C130.318 23.7431 130.486 35.5972 130.934 45.0723C131.036 47.1992 131.441 53.0401 133.208 52.8984C134.584 52.7886 134.905 48.6974 135.067 47.7493C136.235 40.9438 136.629 34.6607 139.614 31.2748C143.074 27.3492 149.676 26.8506 155.937 25.7148C160.126 24.9593 163.976 23.8731 167.095 22.0094C170.477 19.9862 172.902 17.541 175.154 15.2143C176.79 13.5222 178.393 11.7002 179.671 9.43104C174.119 7.31522 168.59 5.15832 163.139 2.76776Z" fill="#E34E6A"/>
<path fill-rule="evenodd" clip-rule="evenodd" d="M174.761 5.99852C180.356 5.64037 188.146 5.99239 192.943 8.05914C201.218 11.6223 206.153 19.6066 208.028 29.2682C209.078 34.6711 209.064 40.5273 208.648 46.3596C208.143 53.427 207.801 61.4125 210.095 66.9517C213.686 75.6253 221.645 82.1751 227.244 90.014C230.188 94.1377 232.228 97.9186 234.477 102.986C236.331 107.167 239.18 113.824 237.369 118.842C234.558 126.639 223.418 124.823 217.327 128.522C213.082 131.098 211.687 135.828 209.68 141.495C205.949 152.04 201.777 163.81 192.117 168.057C183.218 171.97 174.309 166.574 172.074 159.822C169.983 153.503 173.181 147.008 172.488 140.261C171.533 130.977 163.417 126.375 164.016 116.373C164.267 112.174 166.237 108.415 168.147 105.457C170.108 102.425 172.898 99.9191 173.935 96.1916C175.156 91.787 173.686 87.3763 173.727 82.1904C173.781 75.5302 177.158 69.5054 179.926 65.0996C182.459 61.066 187.803 54.4617 186.537 48.6263C185.401 43.3766 181.329 40.0993 177.652 36.6821C173.946 33.2373 170.218 29.6815 167.942 25.5621C166.984 23.8314 165.404 20.3867 165.256 17.3264C165.062 13.3297 166.646 8.37498 169.182 6.82154C170.517 6.00588 172.644 6.1359 174.761 5.99852Z" fill="#E34E6A"/>
<path fill-rule="evenodd" clip-rule="evenodd" d="M195.157 54.8689C192.808 58.6626 185.321 63.242 181.984 61.1936C178.646 59.1422 180.724 51.2376 183.072 47.4421C185.419 43.6514 190.026 42.2384 193.363 44.2916C196.699 46.3388 197.503 51.0776 195.157 54.8689Z" fill="#FFCBD5"/>
<path fill-rule="evenodd" clip-rule="evenodd" d="M179.225 138.841C183.064 140.598 182.768 129.699 179.086 131.629C177.167 132.633 178.223 137.056 179.225 138.841Z" fill="white"/>
<path fill-rule="evenodd" clip-rule="evenodd" d="M183.43 144.868C183.072 144.052 181.892 142.575 180.305 143.42C178.23 144.52 178.039 149.216 177.61 151.063C177.086 153.309 175.087 157.307 177.004 159.07C179.737 161.581 181.752 155.179 182.352 152.947C182.672 151.761 182.868 150.569 183.089 149.552C183.464 147.809 184.123 146.438 183.43 144.868Z" fill="white"/>
<path fill-rule="evenodd" clip-rule="evenodd" d="M197.282 18.4824C194.927 18.6762 191.367 16.8922 187.978 14.9328C186.529 14.0944 184.202 12.6961 184.806 11.3205C185.535 9.66531 188.43 10.8324 189.463 11.2525C192.734 12.5864 196.418 14.8598 198.021 16.6426C198.183 17.1718 197.783 18.0758 197.282 18.4824Z" fill="white"/>
<path fill-rule="evenodd" clip-rule="evenodd" d="M186.275 18.3168C185.439 22.0161 177.738 18.8565 179.259 16.0955C179.922 14.899 184.219 15.0407 185.762 16.3985C186.313 16.891 186.419 17.6717 186.275 18.3168Z" fill="white"/>
<path fill-rule="evenodd" clip-rule="evenodd" d="M167.869 7.06072C167.714 8.39951 165.829 8.9349 163.88 8.7454C162.313 8.59453 159.384 7.59304 160.118 5.94271C160.44 5.2123 161.893 4.58369 163.517 4.70021C165.421 4.83145 168.074 5.33741 167.869 7.06072Z" fill="white"/>
</svg>
