<svg width="33" height="33" viewBox="0 0 33 33" fill="none" xmlns="http://www.w3.org/2000/svg">
<path fill-rule="evenodd" clip-rule="evenodd" d="M6.13162 10.2759C7.40456 5.71765 11.734 2.75 16.5 2.75C21.2659 2.75 25.5955 5.71765 26.8683 10.2759C27.1744 11.3718 27.4594 12.4737 27.6735 13.4603C28.1733 15.7627 28.59 18.836 28.8476 20.9638C29.0902 22.9662 27.6924 24.8013 25.6398 25.1226C23.1795 25.5078 19.3828 26.0193 16.5 26.0193C13.6172 26.0193 9.82046 25.5078 7.36019 25.1226C5.30766 24.8013 3.90975 22.9662 4.15231 20.9638C4.41006 18.836 4.82669 15.7627 5.32642 13.4603C5.54055 12.4737 5.82558 11.3718 6.13162 10.2759ZM16.5 4.86538C12.6362 4.86538 9.21913 7.26346 8.22252 10.8322C7.92241 11.9068 7.64891 12.9664 7.44655 13.8988C6.96892 16.0992 6.5616 19.0897 6.3045 21.2121C6.19687 22.1008 6.81103 22.8942 7.70343 23.0339C10.1584 23.4183 13.8056 23.9038 16.5 23.9038C19.1945 23.9038 22.8416 23.4183 25.2966 23.0339C26.1889 22.8942 26.8032 22.1008 26.6955 21.2121C26.4384 19.0897 26.0311 16.0992 25.5534 13.8988C25.3512 12.9664 25.0775 11.9068 24.7775 10.8322C23.7809 7.26346 20.3639 4.86538 16.5 4.86538Z" fill="#F74E8B"/>
<path fill-rule="evenodd" clip-rule="evenodd" d="M13.6104 23.9038C14.2088 23.9038 14.6941 24.3774 14.6941 24.9615V26.3718C14.6941 27.3453 15.5026 28.1345 16.5 28.1345C17.4974 28.1345 18.3059 27.3453 18.3059 26.3718V24.9615C18.3059 24.3774 18.7912 23.9038 19.3896 23.9038C19.988 23.9038 20.4732 24.3774 20.4732 24.9615V26.3718C20.4732 28.5136 18.6944 30.25 16.5 30.25C14.3056 30.25 12.5268 28.5136 12.5268 26.3718V24.9615C12.5268 24.3774 13.012 23.9038 13.6104 23.9038Z" fill="#F74E8B"/>
</svg>
