<svg width="34" height="34" viewBox="0 0 34 34" fill="none" xmlns="http://www.w3.org/2000/svg">
<path fill-rule="evenodd" clip-rule="evenodd" d="M9.20834 5.05957C8.19227 5.05957 6.76649 5.302 5.79494 5.49771C5.68059 5.52073 5.58856 5.61064 5.56846 5.73933C5.37409 6.98411 5.08335 9.11208 5.08335 10.625C5.08335 12.138 5.37409 14.266 5.56846 15.5107C5.58856 15.6395 5.68059 15.7293 5.79494 15.7524C6.76649 15.948 8.19227 16.1906 9.20834 16.1906C10.2244 16.1906 11.6502 15.948 12.6217 15.7524C12.7361 15.7293 12.8281 15.6395 12.8482 15.5107C13.0426 14.266 13.3333 12.138 13.3333 10.625C13.3333 9.11208 13.0426 6.98411 12.8482 5.73933C12.8281 5.61064 12.7361 5.52073 12.6217 5.49771C11.6502 5.302 10.2244 5.05957 9.20834 5.05957ZM5.34607 3.31627C6.32135 3.11981 7.94381 2.83337 9.20834 2.83337C10.4729 2.83337 12.0953 3.11981 13.0706 3.31627C14.1223 3.52812 14.9103 4.36454 15.0718 5.39943C15.2659 6.64174 15.5833 8.92239 15.5833 10.625C15.5833 12.3277 15.2659 14.6083 15.0718 15.8507C14.9103 16.8856 14.1223 17.722 13.0706 17.9338C12.0953 18.1303 10.4729 18.4167 9.20834 18.4167C7.94381 18.4167 6.32135 18.1303 5.34607 17.9338C4.29435 17.722 3.50644 16.8856 3.34484 15.8507C3.15085 14.6083 2.83334 12.3277 2.83334 10.625C2.83334 8.92239 3.15085 6.64174 3.34484 5.39943C3.50644 4.36454 4.29435 3.52812 5.34607 3.31627Z" fill="#FF3980"/>
<path fill-rule="evenodd" clip-rule="evenodd" d="M24.7917 28.9406C23.7756 28.9406 22.3497 28.698 21.3782 28.5024C21.2639 28.4793 21.1719 28.3895 21.1518 28.2607C20.9574 27.016 20.6666 24.888 20.6666 23.375C20.6666 21.862 20.9574 19.7341 21.1518 18.4894C21.1719 18.3606 21.2639 18.2708 21.3782 18.2477C22.3497 18.0521 23.7756 17.8095 24.7917 17.8095C25.8077 17.8095 27.2336 18.0521 28.2051 18.2477C28.3194 18.2708 28.4114 18.3606 28.4315 18.4894C28.6259 19.7341 28.9167 21.862 28.9167 23.375C28.9167 24.888 28.6259 27.016 28.4315 28.2607C28.4114 28.3895 28.3194 28.4793 28.2051 28.5024C27.2336 28.698 25.8077 28.9406 24.7917 28.9406ZM20.9294 30.6838C21.9046 30.8803 23.5271 31.1667 24.7917 31.1667C26.0562 31.1667 27.6787 30.8803 28.6539 30.6838C29.7056 30.472 30.4936 29.6356 30.6551 28.6007C30.8492 27.3583 31.1667 25.0777 31.1667 23.375C31.1667 21.6723 30.8492 19.3918 30.6551 18.1494C30.4936 17.1145 29.7056 16.2781 28.6539 16.0663C27.6787 15.8698 26.0562 15.5834 24.7917 15.5834C23.5271 15.5834 21.9046 15.8698 20.9294 16.0663C19.8777 16.2781 19.0897 17.1145 18.9282 18.1494C18.7341 19.3918 18.4167 21.6723 18.4167 23.375C18.4167 25.0777 18.7341 27.3583 18.9282 28.6007C19.0897 29.6356 19.8777 30.472 20.9294 30.6838Z" fill="#FF3980"/>
<path fill-rule="evenodd" clip-rule="evenodd" d="M9.20834 23.5385C8.13009 23.5385 6.60509 23.795 5.64282 23.9833C5.53551 24.0044 5.47176 24.075 5.45099 24.1498C5.26654 24.8141 5.08335 25.6408 5.08335 26.2083C5.08335 26.7759 5.26654 27.6026 5.45099 28.2669C5.47176 28.3417 5.53551 28.4122 5.64282 28.4334C6.60509 28.6216 8.13009 28.8782 9.20834 28.8782C10.2866 28.8782 11.8116 28.6216 12.7739 28.4334C12.8812 28.4122 12.9449 28.3417 12.9657 28.2669C13.1501 27.6026 13.3333 26.7759 13.3333 26.2083C13.3333 25.6408 13.1501 24.8141 12.9657 24.1498C12.9449 24.075 12.8812 24.0044 12.7739 23.9833C11.8116 23.795 10.2866 23.5385 9.20834 23.5385ZM5.21761 21.7362C6.17931 21.5479 7.89318 21.25 9.20834 21.25C10.5235 21.25 12.2374 21.5479 13.1991 21.7362C14.1094 21.9143 14.8702 22.5883 15.131 23.5279C15.319 24.2047 15.5833 25.2974 15.5833 26.2083C15.5833 27.1193 15.319 28.2119 15.131 28.8888C14.8702 29.8283 14.1094 30.5024 13.1991 30.6805C12.2374 30.8687 10.5235 31.1667 9.20834 31.1667C7.89318 31.1667 6.17931 30.8687 5.21761 30.6805C4.30729 30.5024 3.54655 29.8283 3.28567 28.8888C3.09771 28.2119 2.83334 27.1193 2.83334 26.2083C2.83334 25.2974 3.09771 24.2047 3.28567 23.5279C3.54655 22.5883 4.30729 21.9143 5.21761 21.7362Z" fill="#FF3980"/>
<path fill-rule="evenodd" clip-rule="evenodd" d="M24.7917 10.4616C23.7134 10.4616 22.1884 10.205 21.2262 10.0167C21.1188 9.99569 21.0551 9.92509 21.0342 9.85029C20.8499 9.18599 20.6666 8.35918 20.6666 7.79171C20.6666 7.22423 20.8499 6.39742 21.0342 5.73312C21.0551 5.65832 21.1188 5.58773 21.2262 5.56673C22.1884 5.37837 23.7134 5.12183 24.7917 5.12183C25.8699 5.12183 27.3949 5.37837 28.3571 5.56673C28.4645 5.58773 28.5283 5.65832 28.5491 5.73312C28.7334 6.39742 28.9167 7.22423 28.9167 7.79171C28.9167 8.35918 28.7334 9.18599 28.5491 9.85029C28.5283 9.92509 28.4645 9.99569 28.3571 10.0167C27.3949 10.205 25.8699 10.4616 24.7917 10.4616ZM20.8009 12.2639C21.7627 12.4522 23.4766 12.75 24.7917 12.75C26.1067 12.75 27.8206 12.4522 28.7824 12.2639C29.6928 12.0857 30.4535 11.4118 30.7143 10.4722C30.9023 9.79526 31.1667 8.70261 31.1667 7.79171C31.1667 6.8808 30.9023 5.78816 30.7143 5.11118C30.4535 4.17164 29.6928 3.49769 28.7824 3.3195C27.8206 3.13126 26.1067 2.83337 24.7917 2.83337C23.4766 2.83337 21.7627 3.13126 20.8009 3.3195C19.8906 3.49769 19.1298 4.17164 18.869 5.11118C18.681 5.78816 18.4167 6.8808 18.4167 7.79171C18.4167 8.70261 18.681 9.79526 18.869 10.4722C19.1298 11.4118 19.8906 12.0857 20.8009 12.2639Z" fill="#FF3980"/>
</svg>
