<svg width="38" height="38" viewBox="0 0 38 38" fill="none" xmlns="http://www.w3.org/2000/svg">
<path d="M14.25 23.75C14.25 24.6244 13.5411 25.3333 12.6667 25.3333C11.7922 25.3333 11.0833 24.6244 11.0833 23.75C11.0833 22.8755 11.7922 22.1666 12.6667 22.1666C13.5411 22.1666 14.25 22.8755 14.25 23.75Z" fill="#FF3980"/>
<path d="M14.25 17.4167C14.25 18.2912 13.5411 19 12.6667 19C11.7922 19 11.0833 18.2912 11.0833 17.4167C11.0833 16.5422 11.7922 15.8334 12.6667 15.8334C13.5411 15.8334 14.25 16.5422 14.25 17.4167Z" fill="#FF3980"/>
<path d="M20.5833 23.75C20.5833 24.6244 19.8745 25.3333 19 25.3333C18.1255 25.3333 17.4167 24.6244 17.4167 23.75C17.4167 22.8755 18.1255 22.1666 19 22.1666C19.8745 22.1666 20.5833 22.8755 20.5833 23.75Z" fill="#FF3980"/>
<path d="M20.5833 17.4167C20.5833 18.2912 19.8745 19 19 19C18.1255 19 17.4167 18.2912 17.4167 17.4167C17.4167 16.5422 18.1255 15.8334 19 15.8334C19.8745 15.8334 20.5833 16.5422 20.5833 17.4167Z" fill="#FF3980"/>
<path d="M26.9167 17.4167C26.9167 18.2912 26.2078 19 25.3333 19C24.4589 19 23.75 18.2912 23.75 17.4167C23.75 16.5422 24.4589 15.8334 25.3333 15.8334C26.2078 15.8334 26.9167 16.5422 26.9167 17.4167Z" fill="#FF3980"/>
<path fill-rule="evenodd" clip-rule="evenodd" d="M19 7.52087C15.6486 7.52087 11.0698 7.81129 8.21196 8.02038C7.27144 8.0892 6.53038 8.82413 6.454 9.76227C6.23357 12.47 5.9375 16.6911 5.9375 19.7917C5.9375 22.8923 6.23357 27.1135 6.454 29.8212C6.53038 30.7593 7.27144 31.4943 8.21196 31.563C11.0698 31.7722 15.6486 32.0625 19 32.0625C22.3514 32.0625 26.9303 31.7722 29.788 31.563C30.7285 31.4943 31.4697 30.7593 31.546 29.8212C31.7664 27.1135 32.0625 22.8923 32.0625 19.7917C32.0625 16.6911 31.7664 12.47 31.546 9.76227C31.4697 8.82415 30.7285 8.0892 29.788 8.02038C26.9303 7.81129 22.3514 7.52087 19 7.52087ZM8.03865 5.65172C10.8978 5.44253 15.5533 5.14587 19 5.14587C22.4468 5.14587 27.1022 5.44253 29.9614 5.65172C32.0677 5.80584 33.7416 7.46273 33.9131 9.56956C34.1338 12.2794 34.4375 16.5855 34.4375 19.7917C34.4375 22.998 34.1338 27.304 33.9131 30.0139C33.7416 32.1206 32.0677 33.7776 29.9614 33.9317C27.1022 34.1408 22.4468 34.4375 19 34.4375C15.5533 34.4375 10.8978 34.1408 8.03865 33.9317C5.93228 33.7776 4.25834 32.1206 4.08684 30.0139C3.86623 27.304 3.5625 22.998 3.5625 19.7917C3.5625 16.5855 3.86623 12.2794 4.08684 9.56956C4.25834 7.46273 5.93228 5.80584 8.03865 5.65172Z" fill="#FF3980"/>
<path fill-rule="evenodd" clip-rule="evenodd" d="M14.25 3.5625C14.9058 3.5625 15.4375 4.09417 15.4375 4.75V8.70833C15.4375 9.36417 14.9058 9.89583 14.25 9.89583C13.5942 9.89583 13.0625 9.36417 13.0625 8.70833V4.75C13.0625 4.09417 13.5942 3.5625 14.25 3.5625Z" fill="#FF3980"/>
<path fill-rule="evenodd" clip-rule="evenodd" d="M23.75 3.5625C24.4058 3.5625 24.9375 4.09417 24.9375 4.75V8.70833C24.9375 9.36417 24.4058 9.89583 23.75 9.89583C23.0942 9.89583 22.5625 9.36417 22.5625 8.70833V4.75C22.5625 4.09417 23.0942 3.5625 23.75 3.5625Z" fill="#FF3980"/>
</svg>
