<svg width="67" height="66" viewBox="0 0 67 66" fill="none" xmlns="http://www.w3.org/2000/svg">
<circle cx="33" cy="33" r="33" fill="url(#paint0_linear_707_689)"/>
<path d="M45.0328 42.0979C41.4796 44.0015 35.1142 45.2989 31.827 44.4771C35.1142 44.1249 41.5711 43.4205 47.733 38.1227C44.0539 40.172 35.936 40.5761 32.5573 39.7811C28.5658 38.842 26.8127 38.0202 22.5864 34.146C22.5864 34.146 23.3743 36.7288 22.5864 38.1227C22.5864 38.1227 22.7384 37.0548 22.1476 35.4451C21.326 33.206 19.3749 31.5777 17.023 31.1655C14.6692 30.754 12.2647 31.6188 10.7094 33.4436C10.7088 33.4453 10.7061 33.4477 10.704 33.4507C5.38356 39.7046 12.5612 53.4956 28.9811 54.2058C38.9049 54.4721 46.1094 48.5526 48.227 46.7049C54.4856 41.2436 59.5064 31.5003 58.7923 22.8757C58.4398 25.1778 56.6553 35.8716 45.0328 42.0979Z" fill="white"/>
<path d="M6.70357 36.3737L9.63852 35.3171L9.40373 37.7825L6.70357 36.3737Z" fill="white"/>
<circle cx="13.5929" cy="35.5639" r="2.16258" fill="#FF3D83"/>
<circle cx="13.5929" cy="35.5635" r="1.08129" fill="white"/>
<defs>
<linearGradient id="paint0_linear_707_689" x1="9.78707" y1="56.4639" x2="61.7338" y2="11.4183" gradientUnits="userSpaceOnUse">
<stop stop-color="#FF357D"/>
<stop offset="1" stop-color="#FF5996"/>
</linearGradient>
</defs>
</svg>
