<svg width="24" height="30" viewBox="0 0 24 30" fill="none" xmlns="http://www.w3.org/2000/svg">
<path fill-rule="evenodd" clip-rule="evenodd" d="M12 2.30769C9.22079 2.30769 6.96773 4.54628 6.96773 7.3077C6.96773 10.0691 9.22079 12.3076 12 12.3076C14.7792 12.3076 17.0322 10.0691 17.0322 7.3077C17.0322 4.54628 14.7792 2.30769 12 2.30769ZM4.64514 7.3077C4.64514 3.27177 7.93802 0 12 0C16.062 0 19.3548 3.27177 19.3548 7.3077C19.3548 11.3436 16.062 14.6154 12 14.6154C7.93802 14.6154 4.64514 11.3436 4.64514 7.3077Z" fill="#FF3C82"/>
<path fill-rule="evenodd" clip-rule="evenodd" d="M8.19927 20C4.95366 20 2.32258 22.6142 2.32258 25.839C2.32258 26.0084 2.35372 26.1279 2.38638 26.1975C2.41393 26.2562 2.43759 26.273 2.45731 26.2836C3.35982 26.7716 5.89023 27.6923 12 27.6923C18.1098 27.6923 20.6401 26.7716 21.5427 26.2836C21.5623 26.273 21.5861 26.2562 21.6136 26.1975C21.6463 26.1279 21.6774 26.0084 21.6774 25.839C21.6774 22.6142 19.0464 20 15.8007 20H8.19927ZM0 25.839C0 21.3398 3.67093 17.6924 8.19927 17.6924H15.8007C20.3291 17.6924 24 21.3398 24 25.839C24 26.6649 23.6991 27.7449 22.6529 28.3106C21.2668 29.06 18.2938 30 12 30C5.70621 30 2.73309 29.06 1.34718 28.3106C0.300945 27.7449 0 26.6649 0 25.839Z" fill="#FF3C82"/>
</svg>
