<svg width="34" height="34" viewBox="0 0 34 34" fill="none" xmlns="http://www.w3.org/2000/svg">
<path d="M16.9999 33C14.5586 33 12.1728 32.6751 10.1003 32.0603C7.8654 31.3974 6.03904 30.4019 4.81848 29.1814C3.59805 27.9609 2.60249 26.1344 1.93956 23.8996C1.32487 21.8272 1 19.4413 1 17C1 14.5587 1.32487 12.1729 1.93962 10.1003C2.60249 7.86544 3.59805 6.03906 4.81854 4.8185C6.03904 3.59806 7.86547 2.6025 10.1003 1.93956C12.1728 1.32488 14.5586 1 16.9999 1C19.4412 1 21.827 1.32487 23.8996 1.93963C26.1344 2.6025 27.9608 3.59806 29.1814 4.81856C29.3644 5.00169 29.3644 5.29844 29.1814 5.4815C28.9982 5.66456 28.7014 5.66444 28.5184 5.4815C26.3323 3.2955 21.9187 1.9375 16.9999 1.9375C12.0811 1.9375 7.66753 3.2955 5.48148 5.4815C3.29543 7.6675 1.9375 12.0812 1.9375 17C1.9375 21.9188 3.29549 26.3324 5.48148 28.5184C7.66753 30.7046 12.0811 32.0625 16.9999 32.0625C21.9187 32.0625 26.3323 30.7045 28.5184 28.5184C30.4804 26.5565 31.7912 22.7771 32.0248 18.4084C32.256 14.0874 31.4222 9.87894 29.7947 7.15088C29.662 6.9285 29.7347 6.64081 29.957 6.50819C30.1792 6.3755 30.4671 6.44819 30.5997 6.67056C32.319 9.55219 33.2017 13.9589 32.961 18.4585C32.7117 23.1204 31.334 27.0287 29.1813 29.1814C27.9608 30.4018 26.1344 31.3974 23.8995 32.0603C21.827 32.6751 19.4412 33 16.9999 33ZM13.3555 24.8839C13.0929 24.8839 12.8296 24.8176 12.5854 24.6843C12.0626 24.3989 11.7505 23.8729 11.7505 23.2771V10.6673C11.7505 10.0716 12.0626 9.54563 12.5854 9.26013C13.1082 8.97469 13.7196 8.99638 14.2207 9.31869L18.5111 12.0768C18.7288 12.2168 18.7919 12.5068 18.6519 12.7246C18.5119 12.9423 18.2219 13.0053 18.0042 12.8654L13.7138 10.1073C13.5057 9.9735 13.2519 9.9645 13.0348 10.0829C12.8176 10.2014 12.688 10.4199 12.688 10.6673V23.2771C12.688 23.5245 12.8176 23.7429 13.0348 23.8615C13.2519 23.9801 13.5057 23.9709 13.7138 23.8372L23.5216 17.5323C23.7159 17.4073 23.8273 17.2033 23.8274 16.9723C23.8274 16.7413 23.7159 16.5371 23.5216 16.4122L19.9208 14.0974C19.7031 13.9575 19.64 13.6674 19.78 13.4497C19.9199 13.2319 20.21 13.1688 20.4278 13.3089L24.0285 15.6236C24.4896 15.92 24.7648 16.4242 24.7648 16.9723C24.7648 17.5204 24.4895 18.0245 24.0285 18.3209L14.2207 24.6258C13.9537 24.7974 13.6551 24.8839 13.3555 24.8839Z" fill="#FF3980" stroke="#FF3980"/>
</svg>
