<svg width="17" height="24" viewBox="0 0 17 24" fill="none" xmlns="http://www.w3.org/2000/svg">
<path d="M10.6811 2.61844C10.1358 1.8119 9.65472 1.06987 9.20566 0.392372C9.14151 0.295586 9.04528 0.1988 8.94906 0.134276C8.56415 -0.123819 8.05094 0.00522876 7.79434 0.392372C7.37736 1.06987 6.89623 1.77963 6.31887 2.61844C3.78491 6.36083 0 12.0067 0 15.2329C0 17.588 0.962264 19.7173 2.50189 21.2658C4.04151 22.7821 6.15849 23.75 8.5 23.75C10.8415 23.75 12.9585 22.7821 14.4981 21.2336C16.0377 19.685 17 17.5557 17 15.2006C17 11.9744 13.2151 6.36083 10.6811 2.61844ZM13.3434 20.0721C12.0925 21.3304 10.3925 22.0724 8.5 22.0724C6.60755 22.0724 4.90755 21.2981 3.6566 20.0721C2.40566 18.8139 1.66792 17.104 1.66792 15.2006C1.66792 12.4906 5.29245 7.10285 7.69811 3.52178C7.98679 3.10237 8.2434 2.68297 8.5 2.32809C8.7566 2.68297 9.01321 3.10237 9.30189 3.52178C11.7075 7.13511 15.3321 12.4906 15.3321 15.2006C15.3321 17.104 14.5623 18.8139 13.3434 20.0721Z" fill="#FF478A"/>
</svg>
