<svg width="17" height="24" viewBox="0 0 17 24" fill="none" xmlns="http://www.w3.org/2000/svg">
<path d="M9.4955 0.818475C8.84459 -0.291885 8.15541 -0.253597 7.5045 0.818475C4.51802 5.25992 0 11.9221 0 15.2532C0 17.5887 0.957207 19.7329 2.48874 21.2644C4.02027 22.796 6.16441 23.7532 8.5 23.7532C10.8356 23.7532 12.9797 22.796 14.5113 21.2644C16.0428 19.7329 17 17.5887 17 15.2532C17 11.8838 12.482 5.25992 9.4955 0.818475ZM14.6261 19.0437C14.0135 20.0392 13.1329 20.9198 12.0608 21.5324C11.5631 21.8005 10.9504 21.6473 10.6824 21.1496C10.3761 20.6135 10.5676 20.0009 11.0653 19.7329C11.8311 19.3117 12.4437 18.6991 12.9032 17.9716C13.3626 17.2442 13.6306 16.4018 13.6689 15.5212C13.7072 14.9469 14.1667 14.5257 14.741 14.564C15.3153 14.6023 15.7365 15.0617 15.6982 15.636C15.6216 16.8613 15.2387 18.0099 14.6261 19.0437Z" fill="#FF478A"/>
</svg>
