<svg width="30" height="30" viewBox="0 0 30 30" fill="none" xmlns="http://www.w3.org/2000/svg">
<path fill-rule="evenodd" clip-rule="evenodd" d="M11.1538 5.67857C9.56069 5.67857 8.26921 6.97375 8.26921 8.57142C8.26921 10.1691 9.56069 11.4643 11.1538 11.4643C12.747 11.4643 14.0384 10.1691 14.0384 8.57142C14.0384 6.97375 12.747 5.67857 11.1538 5.67857ZM6.34613 8.57142C6.34613 5.90862 8.49861 3.75 11.1538 3.75C13.809 3.75 15.9615 5.90862 15.9615 8.57142C15.9615 11.2342 13.809 13.3929 11.1538 13.3929C8.49861 13.3929 6.34613 11.2342 6.34613 8.57142Z" fill="#FF3880"/>
<path fill-rule="evenodd" clip-rule="evenodd" d="M2.5 8.57159C2.5 8.03902 2.9305 7.6073 3.46154 7.6073H7.30769C7.83874 7.6073 8.26921 8.03887 8.26921 8.57144C8.26921 9.104 7.83874 9.53586 7.30769 9.53586H3.46154C2.9305 9.53586 2.5 9.10414 2.5 8.57159Z" fill="#FF3880"/>
<path fill-rule="evenodd" clip-rule="evenodd" d="M14.0384 8.57142C14.0384 8.03886 14.4689 7.60742 14.9999 7.60742H26.5384C27.0694 7.60742 27.4999 8.03915 27.4999 8.57171C27.4999 9.10426 27.0694 9.53598 26.5384 9.53598H14.9999C14.4689 9.53598 14.0384 9.10398 14.0384 8.57142Z" fill="#FF3880"/>
<path fill-rule="evenodd" clip-rule="evenodd" d="M18.8461 18.5356C20.4393 18.5356 21.7308 19.8307 21.7308 21.4285C21.7308 23.0261 20.4393 24.3214 18.8461 24.3214C17.253 24.3214 15.9615 23.0261 15.9615 21.4285C15.9615 19.8307 17.253 18.5356 18.8461 18.5356ZM23.6538 21.4285C23.6538 18.7656 21.5014 16.607 18.8461 16.607C16.1909 16.607 14.0384 18.7656 14.0384 21.4285C14.0384 24.0912 16.1909 26.2499 18.8461 26.2499C21.5014 26.2499 23.6538 24.0912 23.6538 21.4285Z" fill="#FF3880"/>
<path fill-rule="evenodd" clip-rule="evenodd" d="M27.5 21.4286C27.5 20.8961 27.0695 20.4644 26.5384 20.4644H22.6923C22.1613 20.4644 21.7308 20.8959 21.7308 21.4285C21.7308 21.961 22.1613 22.393 22.6923 22.393H26.5384C27.0695 22.393 27.5 21.9612 27.5 21.4286Z" fill="#FF3880"/>
<path fill-rule="evenodd" clip-rule="evenodd" d="M15.9615 21.4285C15.9615 20.8959 15.5311 20.4645 15 20.4645H3.46156C2.93053 20.4645 2.50003 20.8962 2.50003 21.4287C2.50003 21.9614 2.93053 22.393 3.46156 22.393H15C15.5311 22.393 15.9615 21.961 15.9615 21.4285Z" fill="#FF3880"/>
</svg>
