<svg width="200" height="125" viewBox="0 0 200 125" fill="none" xmlns="http://www.w3.org/2000/svg">
<path d="M144.292 76.6138C130.153 84.188 104.825 89.3504 91.7456 86.0805C104.825 84.6791 130.518 81.8763 155.036 60.7961C140.397 68.9504 108.095 70.5585 94.6515 67.3952C78.769 63.6582 71.7935 60.3883 54.9767 44.9729C54.9767 44.9729 58.1121 55.2498 54.9767 60.7961C54.9767 60.7961 55.5816 56.5469 53.231 50.1421C49.9616 41.2323 42.198 34.7534 32.84 33.1134C23.474 31.4761 13.9064 34.9169 7.71797 42.178C7.71546 42.1846 7.70453 42.1941 7.69636 42.2062C-13.4739 67.0907 15.0863 121.965 80.4217 124.791C119.909 125.851 148.576 102.297 157.002 94.945C181.905 73.2146 201.883 34.4456 199.041 0.127803C197.639 9.28795 190.538 51.8391 144.292 76.6138Z" fill="white"/>
</svg>
