<svg width="35" height="35" viewBox="0 0 35 35" fill="none" xmlns="http://www.w3.org/2000/svg">
<path fill-rule="evenodd" clip-rule="evenodd" d="M17.5 5.16021C10.6849 5.16021 5.16024 10.6849 5.16024 17.5C5.16024 24.315 10.6849 29.8396 17.5 29.8396C24.3151 29.8396 29.8397 24.315 29.8397 17.5C29.8397 10.6849 24.3151 5.16021 17.5 5.16021ZM2.91666 17.5C2.91666 9.4458 9.44583 2.91663 17.5 2.91663C25.5541 2.91663 32.0833 9.4458 32.0833 17.5C32.0833 25.554 25.5541 32.0833 17.5 32.0833C9.44583 32.0833 2.91666 25.554 2.91666 17.5Z" fill="#22215B"/>
<path fill-rule="evenodd" clip-rule="evenodd" d="M13.7153 13.7153C14.1534 13.2772 14.8636 13.2772 15.3017 13.7153L17.5 15.9134L19.6983 13.7153C20.1364 13.2772 20.8466 13.2772 21.2847 13.7153C21.7227 14.1534 21.7227 14.8636 21.2847 15.3017L19.0865 17.5L21.2847 19.6983C21.7227 20.1363 21.7227 20.8465 21.2847 21.2846C20.8466 21.7227 20.1364 21.7227 19.6983 21.2846L17.5 19.0865L15.3017 21.2846C14.8636 21.7227 14.1534 21.7227 13.7153 21.2846C13.2772 20.8465 13.2772 20.1363 13.7153 19.6983L15.9135 17.5L13.7153 15.3017C13.2772 14.8636 13.2772 14.1534 13.7153 13.7153Z" fill="#22215B"/>
</svg>
